<svg id="Capa_1" data-name="Capa 1" xmlns="http://www.w3.org/2000/svg" viewBox="0 0 424 428"><title>Recursos Gráficos SIGAIM</title><path d="M226.76,390.25H199.1a11,11,0,0,0-1.68-.38,168.78,168.78,0,0,1-35.55-6.73C75.26,357.83,21.3,268.59,38.72,179.49,57.93,81.24,154.8,17.34,251.81,40.38c67.27,16,111,58.48,131.77,124.46,3.47,11,5,22.44,6.37,33.87v29c-1.1,8.08-1.84,16.23-3.89,24.16q-27.24,105.5-132.43,134C244.83,388.25,235.77,389.15,226.76,390.25Zm-13.88-30c80.82,0,147-65.91,147.09-146.55.1-81.22-65.85-147.49-146.83-147.54S65.88,132.22,65.89,213.3,131.92,360.27,212.88,360.28Z"/><path d="M183.18,213.59v-50.1c0-4.63.5-9.09,5.23-11.57s8.58-.16,12.35,2.59q34.34,25,68.73,50c7.94,5.79,7.92,12.19-.05,18q-34.65,25.2-69.33,50.35a14.59,14.59,0,0,1-5.78,3,8.83,8.83,0,0,1-10.6-6.95,38.5,38.5,0,0,1-.53-6.87Q183.14,237.77,183.18,213.59Z"/></svg>