<svg id="Capa_1" data-name="Capa 1" xmlns="http://www.w3.org/2000/svg" viewBox="0 0 424 428"><title>Recursos Gráficos SIGAIM</title><path d="M363.93,35.76c5.27,2.58,7.3,6.72,7.29,12.64q-.17,123.93-.08,247.84c0,8.92-3.81,12.78-12.62,12.78q-19.14,0-38.28,0C312,309,308,305,308,296.94q0-124.62-.06-249.23c0-5.72,2.36-9.48,7.27-12ZM329.35,172.27v61.64c0,16.71,0,33.43,0,50.14,0,2.69.72,3.79,3.55,3.64,3.93-.2,7.89-.05,11.83-.05,5.06,0,5.07,0,5.07-5.15V62.05a14.42,14.42,0,0,1,0-1.74c.29-2.53-.7-3.56-3.34-3.46-4.17.17-8.35,0-12.53,0-4.54,0-4.54,0-4.54,4.63Q329.35,116.9,329.35,172.27Z"/><path d="M35.89,357.54c2.63-5.48,7-7.31,13-7.29,57.56.13,115.11.05,172.66.14,3.18,0,4.87-.9,6.41-3.83,5.83-11.08,15.17-17,27.79-17.09,12.79-.09,22.26,5.81,28.21,17,1.62,3.05,3.38,4,6.7,3.94,30.16-.13,60.33-.08,90.5-.06,6.52,0,11.11,3.88,11.55,9.62.51,6.75-4.15,11.72-11.18,11.73q-37.77.06-75.54,0c-5.69,0-11.37.08-17.06,0a4.12,4.12,0,0,0-4.28,2.68c-5.88,11.7-15.3,18.16-28.53,18.2-13.39,0-23-6.43-28.8-18.3-1.31-2.66-3.21-2.54-5.42-2.54q-86.5,0-173,.08c-6,0-10.37-1.82-13-7.29Zm230.22,3.61c.1-5.15-4.67-10.09-9.91-10.27s-10.11,4.57-10.35,9.83,4.76,10.4,10.08,10.44S266,366.37,266.11,361.15Z"/><path d="M224.39,193.86V91.49c0-9,3.8-12.79,13-12.79q19,0,38,0c8.21,0,12.26,4,12.26,12.09q0,103.07,0,206.13c0,8-4.06,12.09-11.91,12.1q-19.66,0-39.34,0c-7.86,0-11.91-4.12-11.91-12.09Q224.37,245.39,224.39,193.86Zm21.38,0V213c0,23.57,0,47.13-.05,70.7,0,3,.77,4.18,3.91,4,3.93-.24,7.89-.05,11.83-.06,4.71,0,4.72,0,4.72-4.8v-149c0-10.1-.06-20.2,0-30.3,0-2.53-.73-3.56-3.37-3.45-4.17.16-8.35,0-12.53,0-4.53,0-4.54,0-4.54,4.63Q245.77,149.29,245.77,193.86Z"/><path d="M140.81,214.58V133.1c0-8.69,3.86-12.61,12.43-12.61q19.5,0,39,0c7.5,0,11.73,4.16,11.73,11.57q0,82.7,0,165.39c0,7.4-4.23,11.55-11.72,11.57q-19.86,0-39.7,0c-7.63,0-11.73-4.18-11.73-11.92Q140.79,255.83,140.81,214.58Zm41.79.52c0-23.1,0-46.2.06-69.3,0-3-.77-4.17-3.91-4a102.71,102.71,0,0,1-12.53,0c-3.3-.21-4.1,1-4.09,4.18.12,22.05.07,44.11.07,66.16,0,23.92,0,47.83,0,71.74,0,2.83.76,4,3.72,3.81a106.89,106.89,0,0,1,12.53,0c3.44.22,4.29-1.06,4.27-4.35C182.54,260.61,182.6,237.86,182.6,215.1Z"/><path d="M120.41,235.64q0,30.47,0,60.93c0,8.57-3.93,12.45-12.6,12.45q-19.15,0-38.3,0c-8.2,0-12.26-4-12.26-12.09q0-61.28,0-122.55c0-8,4-12.09,11.9-12.1q19.67,0,39.34,0c7.87,0,11.91,4.11,11.92,12.08Q120.43,205,120.41,235.64ZM99,236c0-16.25,0-32.5,0-48.75,0-2.69-.74-3.76-3.55-3.63-4.52.19-9.06.13-13.58,0-2.28-.06-3.37.54-3.36,3.1q.09,48.92,0,97.85c0,2.57,1.09,3.15,3.37,3.09,4.4-.11,8.83-.21,13.22,0,3.14.17,3.94-1,3.91-4C99,267.8,99,251.9,99,236Z"/></svg>