<svg id="Capa_1" data-name="Capa 1" xmlns="http://www.w3.org/2000/svg" viewBox="0 0 424 428"><title>Recursos Gráficos SIGAIM</title><path d="M202.41,38.66h28.8c5.52.8,11.1,1.31,16.56,2.45C316.94,55.5,362.66,96.36,385.16,163.24c4,11.84,5.72,24.18,7.17,36.54v28.8c-.46,3.62-.83,7.25-1.37,10.85-4.36,28.76-14.68,55.17-32.13,78.48-32.87,43.88-76.89,68-131.54,71.8-33,2.29-64.28-4.79-93.45-20.55a10.93,10.93,0,0,0-9.41-.76c-20.93,6.88-41.94,13.54-62.92,20.3-3.55,1.15-7.09,1.84-10.74.61-8-2.69-11.51-10.29-8.68-19.18,6.59-20.67,13.15-41.36,20-61.94a14.73,14.73,0,0,0-1-12.58c-18.49-35.43-25-73.11-17.2-112.26C58,112.75,100.32,66.81,168.82,45,179.73,41.47,191.07,40,202.41,38.66Zm15.78,27.81c-12.82-.45-29.82,1.72-46.38,7.09-31.63,10.25-56.94,29.2-76,56.29-22.23,31.6-30.16,66.86-25.17,105a141.31,141.31,0,0,0,20,56,17.18,17.18,0,0,1,1.66,15.37c-4.85,14.51-9.42,29.11-14.07,43.68-.33,1-1.29,2.31-.37,3.18s2.15-.08,3.2-.41c13.7-4.39,27.49-8.53,41-13.32,7.44-2.63,13.68-1.76,20.44,2.23,28.28,16.68,58.95,23,91.49,19.07,45.48-5.52,80.9-28.06,106.21-65.88,21-31.3,28-66.13,22.34-103.32s-23.76-67.82-52.73-91.72C284.68,79,255.46,68.13,218.19,66.47Z"/><path d="M165.64,214.39a17.39,17.39,0,1,1-17.1-17.6A17.22,17.22,0,0,1,165.64,214.39Z"/><path d="M216.61,231.57a17.39,17.39,0,1,1,17.59-17.1A17.22,17.22,0,0,1,216.61,231.57Z"/><path d="M285.51,196.79A17.39,17.39,0,1,1,268,214,17.21,17.21,0,0,1,285.51,196.79Z"/></svg>