<svg id="Capa_1" data-name="Capa 1" xmlns="http://www.w3.org/2000/svg" viewBox="0 0 424 428"><title>Recursos Gráficos SIGAIM</title><path d="M200.09,39h29c6.37.92,12.77,1.6,19.08,2.81,95.88,18.25,159.05,111.73,140.41,207.69C370.11,344.6,278.69,408,183.53,389.93,113.3,376.61,67.37,334.18,44.81,266.47c-3.9-11.72-5.59-23.93-7-36.16v-29c.81-5.56,1.31-11.19,2.46-16.68Q62.5,78.66,165.61,45.56C176.81,42,188.45,40.42,200.09,39Zm14.54,325.66c82.58-.67,148.66-66.35,148.7-148.83a148.74,148.74,0,1,0-297.47.08C66,298.76,132.4,364.08,214.63,364.68Z"/><path d="M190.25,276.15a13.33,13.33,0,0,1-10.1-4.14c-14.67-14.61-29.39-29.17-43.88-44a14,14,0,0,1,.06-20.15c5.6-5.5,14.15-5.51,20.16.37q15.66,15.31,31,31c2.24,2.29,3.52,2.24,5.76,0q38.94-39.15,78-78.14c3.28-3.28,6.8-5.75,11.72-5.69a14.07,14.07,0,0,1,11.78,21.77,21.35,21.35,0,0,1-3.12,3.67q-45,45-90,90.07C198.41,274.14,194.83,276.42,190.25,276.15Z"/></svg>