<svg id="Capa_1" data-name="Capa 1" xmlns="http://www.w3.org/2000/svg" viewBox="0 0 661 822"><title>Recursos Gráficos SIGAIM</title><path d="M492.39,741.83c-.89-1-.84-3.57-3.27-1.91-.55.37-1,0-1.1-.55-.68-3-2.31-3-4.5-1.5-.15.11-.54-.11-.87-.2a3.47,3.47,0,0,1,.36-.84c.59-.7,1.88-1.18,1.08-2.38a2.17,2.17,0,0,0-2.67-.79c-2.8,1.64-4.35.18-6.37-1.61-2.59-2.29-4.75-1.44-6.08,2-.81-1.53-1.86-2.86-2.22-4.35-.75-3.15-2.91-4-5.68-4.08a4.79,4.79,0,0,1-3-1c-2.39-2-5.28-1.31-8-1.4a2.49,2.49,0,0,0-2.48,2.8c0,1.5-.24,2.23-1.93,1.86-1.22-.26-1.89.32-2.45,1.55-1,2.26-1.81,4.36-5.58,3.62-1.69-.33-5-.84-7.06,1.4-1,1.13-1.94.76-1.82-1s-1.18-2.9-2.61-3.62-1.77.8-2.57,1.78c-1.54-3.29-4.58-3-7.18-3.66-1.62-.4-3.16.62-5.05-1-1.47-1.29-4.11,1.29-5.14,3-1.35,2.22-3.63,3.65-4.56,6.16-.54,1.49-1.79.39-2.53.15-3.87-1.27-4.07-1-6.09,2.91-.78,1.53-1.34,2.57-3.4,2.82a12.4,12.4,0,0,0-5.47,2.51c-1.72,1.25-2.57.76-3.06-.89s-1.33-1.7-2.69-1.4a10.21,10.21,0,0,1-7.46-1.07c-1.53-.89-2.36-.34-3.13,1s-1.63,3.37-3.6,1c-.11-.13-.43-.28-.51-.22-2.8,2.11-7.23-.29-9.47,3.46-.73,1.22-1.6,1-2.08-.3-.66-1.81-2.6-2-3.84-3.09a1.27,1.27,0,0,0-1.67,0c-2.13,2.74-3.32,0-4.26-1-2.29-2.34-1.88-6,.62-8.28,1.27-1.17,1.62-2.43.1-3.43-1.33-.88-1.26-1.86-1.31-3.22-.13-4-1.61-7.51-5.08-9.75-1.83-1.18-3.44.83-4.9,1.42a4.72,4.72,0,0,1-4.35-.07c-.36-.18-.7-.38-1-.57-5.12-2.72-5.12-2.72-2.5-7.93a5.09,5.09,0,0,0-2.37-6.54,8.7,8.7,0,0,0-4.37-.75c1.55-1.74.3-3.12-.54-4-1.37-1.47-2.82-2.72-3.15-4.85-.1-.66-1-.8-1.49-.54-1.52.73-2.55.46-3.37-1.07-.27-.51-1.25-1.28-1.43,0-.25,1.73-1.5,2.36-2.64,2.06-1.69-.45-3.78-.66-4.49-2.91a4.67,4.67,0,0,0-5.62-2.92c-1.49.5-1.74-.29-1.76-1.45,0-1,.37-2.16-.84-2.58s-1.57.86-2.29,1.46a3.57,3.57,0,0,1-3.58.73c-3.18-1-6.4-1.81-7.42-5.73-.27-1-.72-1.66.3-2.51,1.33-1.12,1.23-2.15-.53-2.82-.64-.24-1.64-.6-1.46-1.27.54-2-.41-3.12-1.71-4.56-1.63-1.8-1.37-3.74,1.19-5.09,6.31-3.32,12.53-6.8,18.78-10.21a2.47,2.47,0,0,1,2.28-.33c2.07,1.06,3.73.17,5.57-.73a6.73,6.73,0,0,1,9.17,4.81,4.33,4.33,0,0,1,4.25-.47,4.65,4.65,0,0,0,3.48-.15c3-1.58,5.07,0,7.15,1.66,1.66,1.34,3.17,1.28,5.36,1,4.13-.57,7.78-.76,8.22-6.07.07-.88.88-.62,1.56-.08a6.53,6.53,0,0,0,9.27-.6c1.85-2,3.46-2.21,5.52-.35s5.84,1.69,7.92-.14a22.08,22.08,0,0,0,2.87-3c1.71-2.18,3.26-4,6.61-2.59,1.86.81,4.76-1.67,5.9-4.42a9.53,9.53,0,0,0,.69-5c-.71-5.45,2.39-9.4,5.36-13.38a2.56,2.56,0,0,1,1.48-.92c3.81-.65,6-3,7.42-6.45,1-2.6,3.41-3.86,6-4.37a5.78,5.78,0,0,0,4.18-2.9c1-1.69,2.55-3.82,4.51-3.22s2.65,3.18,2.77,5.41c.18,3.57.47,3.93,4,3.78,6.46-.25,12.33,2.46,18.51,3.63a4.54,4.54,0,0,1,1.94,1.29c2.31,2.1,4.23,2.19,6.23-.15,1.36-1.57,2-1,2.9.33,1.61,2.42,6,3.22,8.36,1.5.52-.39,1.44-.75,1.42-.2-.11,2.76,3.84,3.32,3.17,6.54-.33,1.61,1.5,2,2.76,1s2.32-1.32,3.88-.18c1.09.79,2.71,1.21,3.27-1.25.46-2,3.54-2.2,5.3-.46-2.82,1.18-3.25,4-4.26,6.35-.39.9-.48,1.84,1.12,2.46a3,3,0,0,1,1.46,4.18c-1,1.89-1,3.55.48,5.19,1,1.12,1.05,2-.67,2.6-1.39.46-2.13,1.75-2.85,2.93-.94,1.54-.46,2.8,1.28,3.14,1.59.31,3.09.6,4.21,1.87.06.07.2.16.26.13,2.83-1.19,5.37,0,8.06.69,1,.28,3.36.11,2.45-2.43-.3-.83.36-1,.88-1.21s1.54-.35,1.53.21c0,2.73,3.49,1.39,3.94,3.55.1.46.85.12,1.32,0,3.49-1,5.81-.16,7.79,3.06a2.05,2.05,0,0,0,3,.87c2.15-1.21,4.07-.6,5.84.58,2.11,1.42,3.76,1.12,5.52-.62,2.46-2.43,3.32-2,5.18.89,3.6,5.68,3.74,11.52,2.09,17.85-1.72,6.53-1.76,13.34-2.28,20-1.23,15.81-3.09,31.55-4.57,47.33-1.14,12.13-2.17,24.28-3.21,36.42q-1.25,14.65-2.39,29.32c-.19,2.36-1,2.67-3,1.49-5.19-3.08-10.45-5.82-12.91-12.07-1.4-3.55-5.77-4.45-9.47-2.95-3,1.21-5.58,3.34-9.16,3-3.34-.3-3.94-1-2.46-4.23,2.22-4.75,4.35-9.55,6.74-14.22,5.63-11,10.57-22.39,16.46-33.29a10.33,10.33,0,0,0,.67-8.64C496.52,740,494.18,739.69,492.39,741.83Z" fill="#2765ac" stroke="#fff" stroke-miterlimit="10" stroke-width="2"/><path d="M490.08,438c-2-2.23-4.07-1.66-6.3-.89-1.32.46-2.75,1.25-4.24.24a.92.92,0,0,0-.85,0,12.75,12.75,0,0,1-8,2.78c-1.13,0-.86,1.41-.48,2.45,1.2,3.26.23,4.22-3.21,4.28-1.81,0-4-.47-5.52,1.18a1.57,1.57,0,0,1-1.92.34c-1.93-1-3.51,1.69-5.64.44-.64-.37-1,1.19-1.07,2.09-.11,1.34.81,2.36,1.46,3.83-1.59-.05-3.09-.41-3.38,1.56a.91.91,0,0,1-1.61.49c-1.59-1.85-2.66-.79-3.88.42a5.59,5.59,0,0,1-1.76,1.06c-1.67.72-1.77,1.74-1.07,3.34,1.66,3.81,1.31,4.74-2.11,6.88a3.42,3.42,0,0,0-1.86,3.71c.71,4.11.25,5.15-3.32,7.53a10,10,0,0,0-1.43,1.48c-1.79,1.86-3.62,3.42-6.42,1.75-.91-.54-2-.73-1.92,1,0,.69,0,1.62-.85,1.61-1.09,0-1.05-1.1-1-1.82.63-7.89-1.17-15.58-1.78-23.37-1.64-21.13-3.4-42.26-5.14-63.39-.42-5.14-.87-10.26-1.4-15.39a5.68,5.68,0,0,1,.93-3.94c1.39-2,3.06-3.89,3-6.6,0-.8.8-1.32,1.36-1.88q4.65-4.59,9.24-9.24a4.8,4.8,0,0,0,1-1.45,24.7,24.7,0,0,1,16.56-14.38c9.08-2.42,13.68-8.49,18.62-15.16,2.05-2.78,4.24-5.34,5.17-8.75.31-1.13,1.26-1.61,2.43-1.91a54.23,54.23,0,0,1,10.56-1.59c2.84-.14,5.11-1.1,6.41-3.51s3.23-2.17,5-1.35c3.85,1.82,7.08.85,9.64-2A10.34,10.34,0,0,1,513,306c3.65-.24,7.37-1.18,10.87,0,4.08,1.39,7.46,2,11.67-.53,3.86-2.32,8.77-2.79,13.55-2.57,2.68.13,5-1.63,7.58-2.4a3.14,3.14,0,0,1,2.51-.17c3.36,1.51,5.9,1,8.48-1.7s5.17-3.71,8.79-2.91c3.28.72,6.66,1,10,1.48,2.72.41,4.93,1.42,5.35,4.6.22,1.68,1.46,2.77,2.67,3.8,2.45,2.08,2.67,3.3.09,5.3-3.76,2.9-6,6.72-7.86,10.92-1.37,3.08-2.24,6.16-1.33,9.5.56,2.07-.14,3.36-2,4.31a18,18,0,0,0-6.68,6.21c-1.25,1.85-1.36,3.6,1,4.95s3.88,6.6,2.23,8.85c-3.6,4.91-4.2,10.57-4.5,16.33-.13,2.44.33,4.94-1.59,7-.91,1-.11,2.1.71,2.86,2.83,2.66,3.38,5.83,2.46,9.49a7.22,7.22,0,0,0,2.18,7.55c1.29,1.21,3.72,2.82,2.57,4.37-1.71,2.29-2.07,6.25-6.85,5.9-2.39-.18-4.6-1.51-7.12-.91-1.2.29-2.27.47-3.06,1.49-1.91,2.47-3.66,2.91-6.1.84-1.72-1.46-2.89-1.36-4.65-.33a5.17,5.17,0,0,1-3.65.69c-2-.61-3.25-.82-3.59,1.72-.1.8-.93.44-1.48.52s-1.38.11-1.64.48c-2.65,3.76-6.82,5.77-10,8.82-2.45,2.34-4.8,2.6-7.71,2.22-.58-.07-1.67,0-1.52,1,.39,2.37-1.06,2.37-2.65,2.25-1.75-.14-2.37,1.72-3.78,2.11-1.74.49-2.26,1.27-1.88,3.25.19,1-1.45.84-2.1,0-1.27-1.62-2.3-1.12-3.74-.11-2.7,1.92-5.53,3.86-9,1.6a1.13,1.13,0,0,0-1.58.36c-.71,1-1.13.86-2,0-1.86-1.8-4.49-.93-6.67-1.14S490.47,436.35,490.08,438Z" fill="#99bc13" stroke="#fff" stroke-miterlimit="10" stroke-width="2"/><path d="M404.71,592.61c-.93,1.57-1.85,3.1-.19,4.81,1.38,1.42,2.75,1.77,4.43.46a1,1,0,0,1,1.7.45c.32.82-.3,1-.9,1.13-1.69.31-1.54,1.49-1.37,2.73.28,2-.53,3.36-2,5a19.27,19.27,0,0,1-8.53,5.77c-2.47.85-3.56,3-4.55,5.23a6.1,6.1,0,0,1-3.33,3.57,15.69,15.69,0,0,0-10.25,15.58c.13,3-.37,5.63-2.66,7.84-1.18,1.13-2.34,1.53-3.71.81-2.1-1.1-3.58-.26-4.95,1.29-1.17,1.33-2.32,2.7-3.57,4-2.37,2.42-4.81,2.52-7.52.43-2.11-1.63-4.45-1.7-6.15.26-1.37,1.58-3.2,1.83-4.82,2.68-1.26.67-2.16-.15-3.06-1.09-1.91-2-3.3-1.89-4.09.68-.9,3-2.1,4-5.53,4.51s-5.76,0-8.21-2.06a3.88,3.88,0,0,0-4.6-.62c-3.89,1.8-6.94-.54-10.14-2.51-2.84-1.76-6-2.76-9.34-.75-1.95,1.18-9-.62-10.69-1.93-2.27-1.73-4.45-4.33-7.94-3-.63.24-.86-.08-1.18-.49s-1-1.25-1.22-1.16c-3.28,1.14-4-1.91-5.63-3.37a5.2,5.2,0,0,0-1.23-.8c-1.71-.75-4,1.27-4.17,1-1.12-1.93-1.82-1.09-3.44-.56-1.78.58-4.06,1.65-6.17.19s-2.54-3.59-3.15-6.09.06-5.93-2.83-7.8a2.26,2.26,0,0,0-2.44-.44c-3.33,1.56-6.93-.06-10.34.82-.74.19-1.94-.69-1.82-1.21.43-1.9-.95-3.44-.81-5.18.21-2.7-1.29-4.59-3.93-4.4a2.68,2.68,0,0,1-2.13-.63,1.75,1.75,0,0,0-2.42,0c-.74.57-1.44,2.22-2.17,1.53a5,5,0,0,1-1.54-3.86c.33-1.81.56-3.07-1.48-3.75-.21-.07-.48-.51-.42-.67.36-1.06.91-2.29-.6-2.71-2-.58-4-1.75-6.29-.83a7.51,7.51,0,0,1-8.55-1.77c-2.21-2.31-4.54-2.75-7.34-1.4C197.8,606,195,605.37,192,602.6c-1.56-1.46-3.2-2.66-4.06-4.81-.42-1.07-1.64-2.7-3.42-.79-1.07,1.14-2.79.23-3.43-.42-2.74-2.8-6.25-4.54-9.2-7-1.78-1.49-2.32-2.93-.31-4.59,2.51-2.06,2.43-5.32,3.66-8,.81-1.75,1.82-2.65,3.77-2.66,4.64,0,7.35-2.49,9-6.78,2.75-7.12,7.93-12.74,12.22-18.91,2.64-3.8,5.44-7.59,5.26-12.61a2.24,2.24,0,0,1,1.43-2.11c4.79-2.21,6.73-6.45,7.94-11.19.43-1.68,1.07-2.88,3.19-2.6,1.37.19,2.39-.73,3.31-1.69s2.1-2.09,3.16-3.13c2.08-2,4.18-3.27,6.62-.42a4,4,0,0,0,2.05,1.15c6.16,1.32,10.38,5.49,14.54,9.77a20.61,20.61,0,0,0,7.41,4.8,115.94,115.94,0,0,1,16.21,8.06,8.38,8.38,0,0,0,5.33,1.44c4-.5,6.92,1.36,9.28,4.18a7.69,7.69,0,0,0,4.68,2.84c5.82,1.11,11.52,2.86,17.5,3a4.43,4.43,0,0,1,2.39,1,33.58,33.58,0,0,0,6.44,3.67,5.74,5.74,0,0,1,3.31,3.24,9.46,9.46,0,0,0,4.92,4.92,13.19,13.19,0,0,1,4.63,4.09,11,11,0,0,0,8.54,4.7,20.39,20.39,0,0,1,9.49,3,21.8,21.8,0,0,0,11.32,3.09A4.76,4.76,0,0,1,361,578c2.91,1.21,5.61.66,8.51-.36s8.63,1.68,10.23,4.34c1.5,2.47,3.87,3.87,6,5.62,2.61,2.09,5.68,2.07,8.15,3.78,1.51,1,3.29,1.61,4.9.12.69-.64,1.11-.56,1.7,0a2.64,2.64,0,0,0,3.29.35Z" fill="#2765ac" stroke="#fff" stroke-miterlimit="10" stroke-width="2"/><path d="M316.2,403.52c.79.65,1.64,1,1.8,1.54,1.51,5.17,6.33,6.11,10.27,8.17a4.17,4.17,0,0,1,2.28,2.31c.69,1.63,2.2,3.43,4.68,2.43a2.86,2.86,0,0,1,2.31,0,3,3,0,0,0,2.87-.12c4.78-3.42,11.35-2.13,15.9-6.32a5.31,5.31,0,0,1,7.12-.33,2.43,2.43,0,0,0,2.83.2c2.54-1.8,5.67-2.68,7.52-5.59,2.75-4.33,6.18-8,11.76-8.58a.79.79,0,0,0,.54-.22c3.17-4.66,8.7-5.76,13-8.67,1-.66,1.86-1.52,3.13-1.58A17.16,17.16,0,0,0,414,381.43c1.32,7.08,1.31,13.9,2,20.65,2.39,24.54,3.48,49.21,6.44,73.71.38,3.12.13,6.32.23,9.49,0,1-.45,1.27-1.25,1-6-1.75-12.33.85-18.26-1.62a2.52,2.52,0,0,0-2.52.46,2.77,2.77,0,0,1-1.58.72c-4.95-.43-9.32,2.63-14.23,2.28a1.59,1.59,0,0,0-.88.08c-3.76,2.46-8.23.9-12.18,2.18a1.93,1.93,0,0,1-1.94-.29c-3.12-2.38-3.46-2.29-5.07,1.18-1.92-1.69-4.33-1.18-7,.6-3.9,2.57-8.26,4.38-12.2,7-2,1.29-4.88-.15-7.4,1.29-2.2,1.26-3.94,3.62-7,3.5-1,0-1.11,1.5-.62,2.2,1.07,1.54.07,2-1,2.7-2.53,1.8-5.51,2.7-8.16,4.22a2.53,2.53,0,0,1-2,.19,4,4,0,0,0-4.44,1.61,4.45,4.45,0,0,1-5.22,1.68c-3-.81-3.91,0-3.66,3.07.77,9.17,1.29,18.38,2.66,27.49.25,1.67-.09,2.14-1.7,2-6-.41-11.67-2.13-17.48-3.3-1.21-.25-1.85-1.42-2.66-2.29-2.66-2.85-5.72-4.86-9.89-4.44a8.17,8.17,0,0,1-5.05-1.3,126.13,126.13,0,0,0-17.59-8.61c-3.32-1.28-5.74-3.86-8.13-6.37a24.19,24.19,0,0,0-11.07-7.13,8.74,8.74,0,0,1-6.83-7.37c-1-5.88.16-10.95,4.39-15.24,3-3.09,5.25-6.89,8.81-9.58,1.8-1.36,2.42-3.94,2.44-6.21,0-4,1.29-7.56,2.82-11.14,1.44-3.35,3-6.68,3.56-10.34a5.8,5.8,0,0,1,1.8-3c8.23-8.67,17-16.6,28.59-20.59,4.43-1.53,5.28-4.95,3.13-9.07s-.77-8.42-2.43-12.38c-.58-1.39,1.09-1.18,1.73-.77,2.34,1.48,4.59,3.1,6.84,4.71.82.59.35,1.43.3,2.2a9.73,9.73,0,0,0,2.26,7.17c1.62,1.93,3.44,2.91,6,1.4a4.49,4.49,0,0,1,2.8-.75c3.46.67,4.93-.81,6.28-4C310,414.76,313.17,409.36,316.2,403.52Z" fill="#99bc13" stroke="#fff" stroke-miterlimit="10" stroke-width="2"/><path d="M454.27,450c1.56,2.27,2.73-.09,3.82-.1,3,0,5.48-1.59,8.34-1.79,5.46-.37,6.32-1.66,4.89-7.1,2.58.17,5.25.52,6.89-2.08,3.66,1.58,7.29-3.23,11,0a1.79,1.79,0,0,0,2.45-.24c1.13-1.06-.35-2-.37-3.33,2.13,1.08,5-1.22,6.33,2.08a.82.82,0,0,0,.78.3c4.1-1.9,9.39.42,12.91-3.62.57-.66,1.14-.19,1.8.19,3,1.72,3.33,1.2,4.37-1.88.58-1.73,2.78-3.1,5.06-3.25,1.59-.1,3.28.17,3.27-2.31,0-1,1-.67,1.65-.69a15.77,15.77,0,0,0,6.82-2.22c3.63-1.88,4.9-6.65,9.42-6.91-.08-3.12,4.78-1.59,4.56-4.84a62.46,62.46,0,0,1,9-.68c1.12.06,2.46,1.19,3.79,1.46,1.69.35,3.41.29,4.33-1.64,1.25-2.61,3.33-2.07,5.26-1.2a7.91,7.91,0,0,0,10.45-3.4c1.88-3.31,2.33-3.35,4.48-.26,1.67,2.39,4,4.39,4.53,7.51.33,1.81,2,1.92,3.52,2,5.65.33,5.47.42,7.53,5.6a90.24,90.24,0,0,0,4.8,9.19c1.19,2.24.84,5.43-1.3,6.58-5.9,3.18-9.15,8.92-13.57,13.52a116.54,116.54,0,0,0-7.51,9.19c-.71.91-1.57,2.14-.66,3.23a2.61,2.61,0,0,0,3.33.25c2.8-1.79,5.54-.32,8.31-.21,1,0,1.23.81,1.6,1.52.7,1.31,1.46,2.58,2.22,3.85.41.68.89,1.68,1.71,1.44,4.26-1.26,6.15,2.22,8.56,4.33s4.37,4.27,7.1,5.76c1.14.61,2.48,1.56,1.85,3-1.15,2.64.57,4.77.86,7.13,0,.38.21.95.48,1.05,4.46,1.79,2.95,5.88,3.44,9.12a7.34,7.34,0,0,0,2,4.14c4.05,4.32,6.09,9.6,7.61,15.25.75,2.78,2.63,5.25,4,7.85.61,1.13,1.37,2.19,1.91,3.35a4.33,4.33,0,0,1-3,6.37c-.66.19-1.34.36-2,.56-4.89,1.49-5.11,1.32-5.12-3.75,0-3.47.6-6.89.43-10.38a20.28,20.28,0,0,0-4.89-12.77,70,70,0,0,1-10.69-15.64c-1.68-3.51-2.72-3.73-6.36-2.16-7.3,3.16-11.35,9.28-14.64,16.1-2.32,4.8-6.2,6.24-11,4.23a4.76,4.76,0,0,1-3-3.68c-.49-2.17-1.67-3.95-4-4.2a4.72,4.72,0,0,0-5.06,3.35c-.86,2.25-1.31,4.59.75,6.63.9.88,2.34,1.15,3,2.75-4.27,1.14-8.62,1.15-12.88,1.56-14.19,1.36-28.47,1.82-42.57,4.13a18.91,18.91,0,0,1-7.94-.68c-3.4-.89-6.66-.93-9.59,1.41-.23.18-.55.46-.77.41-3.93-.77-7.55,2-11.53,1a4.94,4.94,0,0,0-3.2,0c-5.53,2.76-10.47-.13-15.54-1.47-1.73-.45-3.73-.53-4.87-2.37-.31-.5-1.06-.34-1.67-.3q-9.92.51-19.82,1c-1.3.06-2.57.14-3-1.66-.44-2,1-1.68,2-2a2.77,2.77,0,0,0,1.41-1,8.34,8.34,0,0,1,5.45-3.23c2.77-.61,4-2.94,4.39-5.45.37-2.24-1.18-3.65-3-4.63a5.67,5.67,0,0,0-4.34-.07,15.32,15.32,0,0,1-6.77,0c-4.12-.69-4.88-4.84-7.45-7.11-.62-.55.1-1.51.39-2.22A59.07,59.07,0,0,0,435,482.72c.14-.83.29-1.62,1.13-1.94,4.26-1.59,4.46-5,3.8-8.67-.25-1.38.46-2,1.4-2.63,3.63-2.36,4.06-3.6,2.8-7.69-.23-.74-1.23-1.76.12-2.24s2.21-2.81,4.2-1.69c2.93,1.64,4.16-1.58,6.24-2.3,1.54-.54.34-2.38-.39-3.56A2.2,2.2,0,0,1,454.27,450Z" fill="#99bc13" stroke="#fff" stroke-miterlimit="10" stroke-width="2"/><path d="M260.57,281.65A26.16,26.16,0,0,0,262,291.5c.86,2.42.09,4.41-2.39,5.64a31.13,31.13,0,0,0-4,2.54,4.5,4.5,0,0,0-2.17,4c.06,2.4-.73,4.18-3.42,4.75s-3.16,3.75-5.57,4.69c-.6.23-.94.85-1.8.77a4,4,0,0,0-4.48,4,3.37,3.37,0,0,0,.22,1.46c2.08,4.18-.63,7.66-1.64,11.37a3.18,3.18,0,0,1-1.79,1.88c-4.22,2.24-5.31,5.76-3.15,10a7.11,7.11,0,0,1,.19,4.93c-.51,2.25,0,4.79-1.75,6.73a1.66,1.66,0,0,0,0,1.7,2.55,2.55,0,0,1,.15,1.16c0,.24-.34.67-.47.65-3.6-.58-3.11,4.94-6.79,4.44-4.35-.59-8.63-.86-12.09,3-.89,1-3,.2-4.62.21-3.5,0-7.23-.6-9.56,3.1a1.13,1.13,0,0,1-1.59.36c-3.12-2.08-7.06-.26-10.29-2.24-1.26-.78-2.38.24-1.76,1.87,2,5.17,1.26,10.57,1.56,15.89.09,1.55-1,1.9-1.82,1.15-3.77-3.32-7.93-2-11.81-.82-3.48,1-5.08-.53-6.15-3.19a27.2,27.2,0,0,0-3.6-6.78c-3.14-4-1.82-8.77-2.39-13.17-.61-4.68-.65-5.1-5.28-5-1.52,0-2.51,0-2.65-2a10.51,10.51,0,0,0-1.78-5c-1.53-2.21-3.7-1.14-5.84-.69-4.89,1-9.32,3.61-14.36,4-1.94.16-2.82-.64-4-2.4-2.31-3.42-3-7.12-3.77-10.93a1.83,1.83,0,0,1,.22-1.8c.6-.8.45-1.42-.71-1.65-2-.39-2.67-1.61-2.87-3.7-.08-.78,0-3.73-2.72-2.93a1.45,1.45,0,0,1-.82.06c-.45-.16-1.94-6.75-1.57-7,4.24-3.1,1.42-6.71.34-9.83-.66-1.9-.77-3,.54-4.44,2-2.16,4.75-3.19,6.92-5.08.8-.7,1.39-.08,1.84.72.92,1.63,1.93,3.21,2.88,4.81,1.07,1.79,2.86,2.89,4.69,2.47s1.68-2.55,1.65-4.08c0-3-.13-6-2.57-8.24-.22-.19-.59-.53-.54-.67,1.48-3.78-2-3.22-3.68-4.22a11.55,11.55,0,0,1-5-5.3,6.25,6.25,0,0,0-5.08-4,3,3,0,0,1-2.83-2.78c-.47-2.47-3.12-3.13-4.76-4.64a33.58,33.58,0,0,0-2.86-2.12c-.59-.43-1.23-.92-.22-1.53s.88-2,1.4-2.66c2.61-3.43,1.93-7.9,3.94-11.48a4,4,0,0,1,2.65-2c.83-.14,1.34,1.1,1.27,2-.08,1.18-.19,2.36-2,2.37s-1.72,1.48-1.69,2.82c0,1.56.54,2.69,2.19,3.06,4.88,1.08,8.24-2.57,6.73-7.38a8.49,8.49,0,0,1-.38-5.22,3,3,0,0,0-.38-2.85,5.65,5.65,0,0,1-1-4.19c.31-4.66-3.69-9-8.43-9.35a3.14,3.14,0,0,1-.78-.27c.15-2.54,1.49-3.64,3.92-4.25a13.75,13.75,0,0,0,9.14-6.89,4.43,4.43,0,0,1,2.27-1.84,8.19,8.19,0,0,0,4.22-3.46c.76-1.32,2.49-2.36,3.57,0,2.1,4.67,7.16,7,9.21,11.67,1.46,3.35,2,6.55-.84,9.56-1,1.06-.75,2.64-.82,4a16.07,16.07,0,0,1-3.79,9.73,78.56,78.56,0,0,0-5.56,8.07c-2.22,3.51-1.25,7.35-.55,11A28,28,0,0,0,133,286.72a2.71,2.71,0,0,0,2.58,1.44q13.23-.26,26.45-.41c1.91,0,3.53-.37,4.35-2.38.21-.52.66-1.27,1.09-1.34,5.83-1,5.47-6.67,7.75-10.26,2.71-4.27,6-8.14,8.79-12.31a26.7,26.7,0,0,0,3.06-5,13.31,13.31,0,0,1,12.36-7.75c1.19.05,2.38.11,3.57.08,2-.05,3.42-1.22,3.37-3.05-.07-2.7,1.41-2.74,3.19-2.36a78.77,78.77,0,0,1,9.76,2.47,7.12,7.12,0,0,1,4.5,5.78c.38,2.45,1,4.83,2.66,6.49,3.28,3.31,2.34,6.75.66,10.09-1.34,2.64-1.45,4.7.65,6.95a36.13,36.13,0,0,1,2.95,4.45c1.06,1.54,2.15,1.6,3.2-.05.75-1.17,1.48-2.35,2.29-3.47.5-.7,1.08-1.68,2.07-.61.63.67,1.07,1.52.11,2.31-3.89,3.19-3.65,7-2,11.27.88,2.27.35,5.38,2.3,6.88s4.75-.39,7.18-.18c1.85.17,2.74-.44,3.78-2.27A35.8,35.8,0,0,1,260.57,281.65Z" fill="#fdb912" stroke="#fff" stroke-miterlimit="10" stroke-width="2"/><path d="M433.49,483.43a45.8,45.8,0,0,1-3.5,11.83c-.94,2.07-1,3.81,1.12,5.16a2.26,2.26,0,0,1,.84.81c2.73,5.95,7.84,6,13.15,5.15,3.16-.49,5.54.34,6,2.56.43,1.92-1.67,4.71-4.21,5.3-2,.48-3.4,2.23-5,2.8-3.31,1.14-4,4.28-6.08,6.23-6.76,6.24-13.51,12.52-20.41,18.62-2,1.74-1.88,3.2-.15,4.64,2.78,2.3,4.71,4.67,3.3,8.63-.45,1.26.42,2.69,1.76,3.48.68.41,1.34.84,2,1.25a2.75,2.75,0,0,1,1.56,2.94c-.23,1.16-1.36,1.39-2.35,1.48-2.45.22-4.05.84-4.46,3.88-.34,2.49-3,3.56-5.35,3.24-5.28-.71-9.76,2.1-14.56,3.25-3.51.84-5.18,5-7.34,7.9-3.32,4.48-5.21,4.51-8.34-.12-3.91-5.76-8.38-7-15.22-5.28-3,.72-6.43-.1-9.58-.69a24.5,24.5,0,0,1-9.65-3.62,15.28,15.28,0,0,0-8.22-2.25,10.22,10.22,0,0,1-8.23-4.58,15,15,0,0,0-5.15-4.38c-1-.56-2.33-1.24-2.73-2.19-1.69-4-5-6-8.71-7.55-2.93-1.28-4.22-3.46-4.46-6.6-.67-8.59-1.48-17.17-2.25-25.76-.15-1.75.31-2.74,2.33-2a5.18,5.18,0,0,0,6.07-1.91c.66-.79,1.41-1.61,2.44-1.51,5.39.54,9.13-3,13.38-5.29.79-.43,1.61-1.29.92-2.19-1.39-1.8-.45-2,1.15-2.22,2.5-.41,3.82-3.09,6.4-3.5.64-.11,1.25-.68,2-.51,3.8.88,6.36-1.41,9-3.49a10,10,0,0,1,3.67-1.84,9.09,9.09,0,0,0,4.1-2.18c1.39-1.3,3-2.23,4.89-.33,1.24,1.23,2.15.2,2.56-1.12.63-2,1.39-2.2,2.69-.43.75,1,1.84,1.07,3.18.77,2.36-.51,4.76-1.5,7.25-.42.25.1.7.2.84.07,3.26-3.09,7.92-1.06,11.48-3.18,1.74-1,4-.41,5.78-1,4.09-1.23,8-.14,12-.14a128.85,128.85,0,0,1,13.33.58c.75.08,2.06,0,2.24-.44C426.6,483.48,430.61,485.7,433.49,483.43Z" fill="#99bc13" stroke="#fff" stroke-miterlimit="10" stroke-width="2"/><path d="M461,628.26c-.39-2.88-3.7-4-4.16-6.88,0-.24-.85-.62-1-.52-2.24,1.94-4.8.42-7.16.75-.93.13-.9-.33-1.19-.76-2.11-3.05-2.65-3.08-5.3-.62-1.27,1.19-2.67,1.78-4,0a4.58,4.58,0,0,0-2.66-1.82c-6.16-1.22-12.07-3.85-18.5-3.58-2.19.1-3.26-.31-3.15-2.86a7.83,7.83,0,0,0-3.08-6.4,3.06,3.06,0,0,1,.24-5.13,1.92,1.92,0,0,0,.88-2.76,2.24,2.24,0,0,0-3.27-1.05c-1.24.64-2.26,1.2-3.31-.26s-.08-2.17.72-3.08,1.23-1.92.44-2.95a1.8,1.8,0,0,0-2.86,0c-2.11,2.16-3.33-2.26-4.84-.71-1.75,1.82-3.12,1.62-4.82.25a6.19,6.19,0,0,0-3.66-1c-2-.17-2.35-1.17-1.33-2.78a61.64,61.64,0,0,1,7.2-9.44c.27-.28.57-.7.9-.75,4.65-.73,8.88-3.4,13.67-3.27s6.64-.92,7.84-5.3c.42-1.53,1.42-1.36,2.43-1.59,1.73-.4,3.84-.58,4.21-2.7s-.95-3.73-2.94-4.64-2.93-2.45-2.25-4.79c.87-3-.54-5.17-2.85-6.92-2.12-1.61-2.2-2.83.05-4.77,6.14-5.3,12-10.93,18-16.42,1.37-1.25,2.36-2.1,4.87-1.45,3.61.94,7.68.61,11.5-.11,3.54-.66,7.11-.16,10.66-.33,1.66-.08,3.4,1.76,5.39,2.41,3.45,1.13,7.11,1.42,10.47,2.87,1.24.54,2.53-.2,3.73-.64a9.22,9.22,0,0,1,3.71-1c1.83.11,2.91.5,3,2.92.16,8.43,2.06,16.69,2.91,25.06.21,2.06,1.53,2.69,3.41,1.82a3.61,3.61,0,0,1,3.29.1c2.67,1.13,5.44-.14,8.17-.3,4.13-.24,8.25-.66,12.37-1a2.57,2.57,0,0,1,3.15,2.32,11,11,0,0,0,3.36,6.15c1.35,1.18.94,2.78,1,4.18s-.71,2.93.8,4.07c.13.1.14.35.2.53-2.44.41-1.95,4.14-4.69,4.18-3,.05-5.75.5-7.84-2.91-1.83-3-5-2.36-7.48,1.14-1.2,1.68-2.14,2.4-4,1.33a2.16,2.16,0,0,0-2.74.51c-4.24,5.13-10.41,4.89-16.11,5.75-2.25.34-2.8,1.67-2.55,3.21,1.79,11,1.82,22.11,3.77,33a7.54,7.54,0,0,0,5,5.79c5.28,2.06,9.71,5.69,15,7.66,3.47,1.28,5.17,5.62,4.32,10.07-.56,2.93,2.46,9.41,5.24,10.2,3,.86,3.43,3.32,4.85,5.5-1.61.36-3.11-.24-4,1-1.77,2.55-3.82,2.77-6.23,1-.16-.11-.39-.13-.54-.24-2.19-1.64-5.36,1.19-6.45-.32a8.72,8.72,0,0,0-5.34-3.71c-2.16-.54-4.42-.56-6.52-1.48-.53-.23-1-.19-1.22-.87a1.89,1.89,0,0,0-2.8-1.28c-1.19.51-2.65.46-2.63,2.56s-1.67,1.54-2.51.68c-1.45-1.48-2.66-2.33-4.39-.46-.64.69-1.44.48-2.09-.18a3.76,3.76,0,0,0-2-1.18c-.93-.15-2.34.16-2.48-1a2.84,2.84,0,0,1,1.92-2.76c3.3-1.23,3.24-3,1.16-5.3a2.13,2.13,0,0,1-.17-2.74c1.51-2.45.57-6-.43-6.94-2.19-2-.61-3-.14-4.51.08-.27.25-.66.47-.73,4.73-1.5,1.24-3.16.1-4.77-.57-.81-1.45-.95-2-.2-1.08,1.51-4.24.59-4.08,3.57,0,.52-.93.41-1.21.08-1.68-2-3.3-1.08-4.94,0Z" fill="#99bc13" stroke="#fff" stroke-miterlimit="10" stroke-width="2"/><path d="M103,428c.77-.61,2.09,1.29,2.46-.36.28-1.27-1.06-1.62-2-2.18-1.13-.66-2.58-.05-4-1.33,2.37.07,2.67-.81,1.67-2.46-.68-1.12-1.5-2.27-.32-3.71.55-.67,0-1.24-.92-1.27a1.43,1.43,0,0,1-1.2-2.43c2.68-3.27.45-6-.79-8.75-.54-1.19-1.38-1.86-.12-3.25.89-1,.8-3.11-.44-3.71-1.92-.94-1.85-2.13-1.72-3.81.12-1.45-4.25-4.06-5.85-3.65-.54.14-1,.71-1.71.37.25-.84.54-1.64.7-2.47a4.33,4.33,0,0,1,5.84-3.21c.81.35,1.68.68,2.17,0,1.76-2.58,4.58-4.42,5.36-7.69.12-.49.32-1-.07-1.39a23.16,23.16,0,0,1-5-8.7c-.87-2.44-3-3.71-4.87-5.23a8.16,8.16,0,0,1-2.58-9c1.14.52,1,2.92,2.61,2.32s1.49-2.45,1.45-3.94c-.08-2.81-1.14-5.87.26-8.36,2.25-4,1.5-6.81-2.11-9.36-1.3-.92-.28-3.39-2.69-4.07-1.85-.51-2.8-.17-3.66,1.31-.37.63-.22,1.81-1.31,1.71-1.27-.12-.88-1.42-1.08-2.16a9.11,9.11,0,0,0-6-6.48c-.54-.2-1.13-.26-1.69-.41-.82-.21-.76,1.69-1.7.81-.78-.73-.21-1.74.17-2.49.87-1.71,2.48-3.06,1.43-5.4-1.29-2.87-3.64-4.46-6.25-5.65-4.15-1.91-6.79-8.08-4.86-12.42,1.08-2.43,2.18-5,4.2-6.78a3.59,3.59,0,0,0,1-4.24,8.16,8.16,0,0,1-.57-2c0-1.2-.94-3,.42-3.44s1.22,1.58,1.72,2.55c1.17,2.27,3.41,3.51,5.21,5.16.65.59,1.4-.12,2.08-.6,3-2.15,5.28-5.07,7.92-7.6,1.69-1.62,1.7-4,1.47-6.17-.31-3.11,1.07-5.09,3.8-6.32,1-.45,2-.89,2.94-1.41,1.62-.87,1.55-2.09,1.12-3.77-1.86-7.35-6.48-13.23-10.17-19.6a50.06,50.06,0,0,0-3.24-4.24c-1.14-1.56-1.89-3.15.65-4.48.53,1.47,1.45,2.43,3.24,2.13,1-.17.8.89,1.07,1.45,1.47,3.16,3.55,5.53,7.39,5.43,2.4-.06,3.34,1.81,4.62,3.29,1.65,1.92,2.4,5,5.92,4.61.72-.07.69.83.82,1.38.21.84.19,1.82,1.34,2l0,0c-.09.5,0,.8.61.64l0,0a4.16,4.16,0,0,1-.54,4.36,3.71,3.71,0,0,0-.66,3.1c.14,1,.14,2.18-.65,2.78-2.07,1.59-1.06,5-4,6.21-.94.38.08,1.49.84,2,1.77,1.27,3.52,2.55,5.28,3.84,1.43,1.05,2.87,2,3,4.13.06,1.38,1.43,1.89,2.63,2a5.94,5.94,0,0,1,5.28,4.11c.64,1.59,2.07,2.62,3.23,3.83,1.37,1.41,4.64,1.77,4.66,2.65,0,2.08,1.15,3,2.14,4.45,1.75,2.46,1.71,5.39,1.26,8.28-.07.46-.34,1.08-.89,1a3.6,3.6,0,0,1-2.79-1.47c-1.08-1.75-2.2-3.49-3.13-5.32-.75-1.47-2-2-3.13-1.16-2.61,1.93-5.76,3.16-7.86,5.78-1.34,1.67-1.53,3.19-.51,5.39,1.26,2.75,3.69,6-.36,8.78-.28.19-.38.69-.49,1.06-.48,1.74,2.27,7.6,3.93,8.45.24.12.6.26.65.46,1.18,4.81,5.87,8,5.61,13.72-.12,2.55,2.08,5.94,4.26,7.65,2.34,1.85,6,1.44,8.7-.27,3.46-2.22,7.72-1.33,11.19-3.49,1.21-.76,2.91,0,3.29,1.91.1.48.48.91.52,1.38.34,3.91,2.13,5.74,6.28,4.9,1.38-.28,2,1,2.08,2.33.17,3.06.53,6.13.49,9.19s1.75,5.4,3.29,7.78c2.28,3.52,2.34,3.44-1.06,5.93-2.15,1.57-4.28,3.2-6.37,4.87-3.61,2.87-3.7,6.33-.1,9.13a45.83,45.83,0,0,1,7.2,7.47c1,1.21,1.06,2.23-.07,3.34-2.29,2.24-4.17,4.71-7.07,6.54-3.8,2.4-5.15,6.9-4.9,11.5.09,1.77.16,3.35-1.39,4.54a1,1,0,0,0-.18.23c-1.5,3.22-1.22,6.91-3.06,10.15-1,1.8.19,4.08,2.39,5.12,1.49.7,1.41,1.6.71,2.84a6.54,6.54,0,0,1-2.93,2.84c-4.35,2.09-8.85,3.39-13.76,2.71a50.14,50.14,0,0,0-9.8.05c-1.81.1-3.35-.16-4.37-1.83-.21-.33-.58-.84-.82-.81-3.59.46-6.31-2.47-9.52-2.63-2.94-.14-3.54-2.95-5.79-3.69-.52-.17.56-1.2,1.19-1.64a7.55,7.55,0,0,0,2.44-9.66c-.91-1.95-1.75-3.89-1.07-6.1Z" fill="#2685b7" stroke="#fff" stroke-miterlimit="10" stroke-width="2"/><path d="M470.08,319.72c-4.54,8.48-9.38,16.45-17.7,21.72-2,1.25-4,.51-6,1.23-4.18,1.51-7,4.8-10.31,7.35a20.11,20.11,0,0,0-6.44,7.65c-1.91,4-6,6.95-9.38,10.16a7.47,7.47,0,0,0-2.49,4.49c-.94,6-7.94,12.34-13.88,12.9a4.37,4.37,0,0,0-2,.33c-4.62,3.4-11,3.92-14.68,8.77-1.38,1.81-3.37,1.86-5.24,2.4-4.09,1.16-6.37,4.48-8.75,7.62a13.18,13.18,0,0,1-4.23,4c-2.29,1.22-4.13,2.45-7,.82-2.34-1.32-5,.25-7.22,1.66-3.31,2.1-6.55,4.2-10.8,3.14-.92-.23-1.7.57-2.17,1.34-1,1.7-2.57,1.73-4.15,1.25a3.12,3.12,0,0,0-2.49,0c-1.87.84-3.17-.46-3.47-1.95a2.53,2.53,0,0,0-1.94-2.16c-2.11-.85-4.14-1.87-6.19-2.85a6,6,0,0,1-3.57-3.75,6.45,6.45,0,0,0-2.11-2.81c-2.7-2.42-2.22-6-2.88-9-.27-1.26,1.16-2.46,2.39-3.17,2.16-1.26,3.11-3,2.33-5.46-.21-.66-.4-1.51.19-2,1.83-1.41.93-2.88.4-4.5a8.65,8.65,0,0,1,1.48-8.57c1.35-1.65,2.73-1.54,4.33-.3,2.88,2.25,4.07,2.08,6.55-.63a7.84,7.84,0,0,0,1.84-4,3.88,3.88,0,0,1,2.88-3.35,7.28,7.28,0,0,0,4.51-3.62c.94-1.74,2.26-2.14,3.91-1.05,2,1.32,3.09.54,3.68-1.5.62-2.19,1.32-4.36,1.8-6.58s-1.88-5-4.58-5.77c-1-.31-2.17-.31-3.19-.68-2.22-.78-2.55-2.33-1.14-4.1,2.36-3,1.22-6.19.49-9.33-.44-1.92-1.52-3.68-1.46-5.72,0-.87-.18-2,.68-2.43,1-.48,1.42.78,2,1.36,2.47,2.57,4.9,5,8.57,6.08s6.57-.49,8.72-2.78a7.1,7.1,0,0,1,6.81-2.19,5.75,5.75,0,0,0,5.42-1.45c1.34-1.3,2.8-1.3,4.57-1.36,2.25-.08,4.83-.19,6.55-2.12a2.26,2.26,0,0,1,2.28-1c.29.05.73.1.87-.05,3.32-3.65,8.63-.31,12.08-3.47,3.4,1.61,6.87-.18,10.35,0s7.69,2,11.24-.68c.23-.17.56-.41.79-.37,3.57.67,7.13-.89,10.57-.33,2.58.43,4.57.25,6.57-1.31,1.79-1.39,3.63-1.95,5.55-.08,1.15,1.13,2.34,1.11,3.7.08a19.5,19.5,0,0,1,3.89-2c1.38-.6,4.53,1.87,5.11,4.34.43,1.85,1.45,2.15,2.74,1.46,2.77-1.48,4.53.07,5.64,2.07A3.63,3.63,0,0,0,470.08,319.72Z" fill="#99bc13" stroke="#fff" stroke-miterlimit="10" stroke-width="2"/><path d="M50.11,567.82c0-2.64-2.94-3.66-3.27-6.29-.16-1.3-.6-2.38.16-3.57a1.85,1.85,0,0,0,.24-2.2,1.1,1.1,0,0,1,.29-1.59c1.95-.87,3.75-1.66,1.43-4,1.68,0,1.59-1.9,2.67-2.58,2.23-1.4,3.6-3.63,5.22-5.61,1.24.75,2.7,1.19,2.72,3.06,0,.93.81,1.33,1.71,1.2a1.64,1.64,0,0,0,1.4-1.35c1.1-3.84,4.63-5.14,8.27-2.88,1.42.88,2,2.33,3.39-.44.82-1.61,3.56-2.52,4.62-4.81,3.33,3.56,5.94,7.54,9.4,10.83,7.44,7.07,15.82,6.82,24.36,2.64.94-.46,1.87-1.67,2.89-1,1.27.88.18,2.18-.1,3.24-.63,2.42-.26,4.5,1.7,6.19,2.48,2.14,3,4.68,1.75,7.73-1.13,2.72-1.58,5.69-3.76,8-1.22,1.29-.32,2.43,1.22,2.22a28.36,28.36,0,0,1,11.67.74c.43.12,1.22.06,1.41-.22,3-4.49,6-.44,8.76.25,3.81.94,7,2.67,5.42,7.9-.65,2.14,1.26,5,.06,6.93s-4.17,1.36-6.22,2.35c-1.88.89-3.81,1.67-5.75,2.42s-2.48,2.23-1.81,4c2.56,6.89,2.94,14.34,5.37,21.25.67,1.88,0,2.58-1.78,2.65-2.49.09-2.9,1.3-2.14,3.54s2.13,4.73,1.45,7.45c-.31,1.24-1,1.66-2.13,2.32-4.23,2.42-8.44.16-12.62.3-2.92.1-3.7-3.25-3.65-5.59.06-3.56-1.57-5.28-4.61-6.34-1.3-.46-2.52-1.13-3.78-1.72a4.18,4.18,0,0,1-2.28-2.94c-.28-1.08.7-2.67-.73-3.22a6.26,6.26,0,0,0-5.2.16c-3,1.52-6.15,2.75-9.39,1.77-4.22-1.26-8.64-2.12-12.4-4.65-.16-.11-.29-.34-.46-.37-7.52-1.29-13-8-21.18-7.7-1.66.06-2.55-1.46-3.5-2.54a23.89,23.89,0,0,0-7.23-6.07,8,8,0,0,1-3.88-4.6c-.39-1-1.12-1.21-1.82-.74-1.27.85-3.09.13-3.11-.36-.07-1.89-2.73-3-1.3-5.35a72.94,72.94,0,0,1,4.72-7.19c.56-.71,1.19-1.67,2.16-1,3,2.2,5.78.27,8.62-.46.37-.1,1-.47,1-.4,3.16,4.36,3.22-1.91,5.25-1.57.3,0-.63-5.59-1.31-5.78-1.25-.34-1.63-.61-1.32-2.15s-1.29-2-2.68-2Z" fill="#2685b7" stroke="#fff" stroke-miterlimit="10" stroke-width="2"/><path d="M328.64,313.6a11.52,11.52,0,0,0-4.36-5.54,2.39,2.39,0,0,0-2.74-.5c-1,.55-.81,1.5-.8,2.36a11.63,11.63,0,0,0,2,5.82,6.08,6.08,0,0,1-.68,7.64c-3.52,4.28-7.35,8.31-10.51,12.89-1.27,1.85-2.86,2.58-5.06,1.38a3,3,0,0,0-3.63.19,1.55,1.55,0,0,0-.43,1.87c.32.87,2.35.71,1.47,2.08s-1.58,3-3.19,3.37a12.51,12.51,0,0,0-8.87,6.5c-1.49-4.19-.66-7.8-.32-11.32.29-3-1.44-7-4.18-8.2-.77-.35-1.38-.21-1.68.6s-.44,1.52-.65,2.28c-.87,3.19.2,7-3.06,9.47-.4.29-.48,1.38-.31,2,.95,3.31-1.6,5.07-3.11,7.29-.19.28-.76.64-.92.55-2.85-1.56-5.86.49-8.74-.44a4.61,4.61,0,0,0-2.33-.11,4.77,4.77,0,0,1-5.44-1.95,6.86,6.86,0,0,0-6.84-2.64c-1.57.2-2.4-.09-2.77-1.73a35.35,35.35,0,0,0-1.27-3.32c-1.1-3.35-1.3-3.46-4.75-2.2-1.8.66-5.27-1.44-6-3.71-.22-.64-.09-1.51-.48-2-1.12-1.34-4-1.81-1.42-4.55,1.35-1.41.48-4.15,2.53-5.49,1.23-.8.64-2,.32-3a18.85,18.85,0,0,1-1-4.62c-.18-2.43.89-3.2,3.33-3.31,2.24-.11,3.73-1.94,5.11-3.51.93-1.06,1.66-2.19,3.19-2.43,2.69-.43,3.56-2.6,3.54-4.74a5,5,0,0,1,2.87-4.75c1.11-.66,2.15-1.43,3.29-2,2.7-1.38,3.49-3.86,2.46-6.26-2-4.69-1-9.36-.7-14.05a10.67,10.67,0,0,0-.15-3.53c-.75-2.68,0-4.67,1.51-7.08a13.43,13.43,0,0,0,.79-12.82c-1.72-3.91-1.09-8.18-2.26-12.15a1.68,1.68,0,0,1,1.1-1.92c.93-.38,1.11.59,1.46,1.1,1.51,2.17,1.92,4.94,3.84,7a2.46,2.46,0,0,1,0,2.84c-1.51,2.11-.58,4.44-.79,6.63s2.05,2.45,3.45,2.35c4.1-.3,5.31,3.15,7.53,5.3.26.25.29.74.56,1,2.29,2,11,1.47,13.12-.73,4.36-4.51,5.65-4.69,11.23-1.69a9,9,0,0,0,2.76,1.06c3,.44,5.37,1.4,5.4,5a1.56,1.56,0,0,0,.58,1c4,3.49,3.82,7.65,2.32,12.24-.7,2.17.76,3.46,2.87,3.49,3.26,0,6.53-.16,9.8-.3,3.9-.18,8,.7,11.52-1.85.68-.49,1,0,1.41.51,3.3,4,3.92,8.74,3.05,13.47-.47,2.5-3.31,3.8-5.83,4.39-4,.95-5.73,3.09-4.8,6.91.44,1.78.23,2.68-1.78,2.57C330.2,312.22,329.57,313.08,328.64,313.6Z" fill="#ea2229" stroke="#fff" stroke-miterlimit="10" stroke-width="2"/><path d="M116.45,575.46c2.55-3.33,3.15-7.22,4.29-10.86a5.79,5.79,0,0,0-2.06-6.17,5.44,5.44,0,0,1-1.65-6.64c.43-1.19.79-2.52-.41-3.58s-2.44-.25-3.54.32C101.83,554.35,94.6,553,86,543.35c-2.16-2.44-4.11-5.08-6.45-8,2.59,0,3.83-.47,2.71-3.3-.69-1.74,1.18-2.56,2.58-1.54,2.05,1.5,2.46.35,3.05-1.25.21-.58.1-1.54,1-1.67,2.88-.41,4.09-2,3.49-4.86-.12-.54.12-.57.56-.72,2.94-.92,3.27-2,1.62-4.86a5.57,5.57,0,0,1-.32-.76,3.84,3.84,0,0,1,.53-.36c1.27-.47,3.3-.88,2.61-2.49s-2.11.19-3.22.4l-3,.58c-.11-2,.62-2.5,2.4-2.06a2.53,2.53,0,0,0,2.76-.64c.88-1.19-.54-1.38-1-2-.06-.08-.13-.16-.18-.24a.83.83,0,0,1,.48-1.2c2.7-.57,1.1-5.7,5.2-4.83.87.18,1.56,2,2.72.41,1-1.38-.6-2.05-.89-3.23,1.37-.42,1.66.72,2.29,1.35,1.68,1.67,3.28,3.74,5.91,1.22,1-.93,1.79-.14,2.52.61,3.63,3.76,8.43,3.31,12.75,2.6,2.27-.38,4.21-3.07,6.18-4.85a4.38,4.38,0,0,1,4.91-.94c1.48.55,3.17.71,4.5,1.49,3.47,2,6.81.53,10.2-.05.71-.12,1.44-.62,1.44-1.33,0-3.4,2.84-6.54.58-10.15a18.43,18.43,0,0,1,7.87.33,31.62,31.62,0,0,0,6.1,1.18c.59,0,1.07,0,1.3.83a13.7,13.7,0,0,0,9.24,9.81,1.79,1.79,0,0,1,1.29,1.72c1.2,7.06,2.67,14,7.11,19.94a1.51,1.51,0,0,1,0,2.15c-.74.8-1.62,1.35-2.59.64-3.26-2.36-5.29-.25-7.33,1.9-3.13,3.29-6.1,3.91-10.2,2.18a5.75,5.75,0,0,0-5.94.45c-1.61,1.24-.77,3.12-.48,4.74.54,3,2.63,5.52,2.86,8.68.12,1.63.11,2.73-1.82,3.36-3.83,1.24-6.4,4.24-8.95,7.15-1.38,1.58-.3,4.6,2,5.91a13.08,13.08,0,0,0,2.5.92c2.51.8,3.64,2.34,3.38,5.12-.41,4.26-.28,4.28,4,5.11a10.45,10.45,0,0,1,5.39,2.32,6.12,6.12,0,0,0,4,1.68c-.59,3-1.17,5.76-3.5,7.94-2,1.83-1.39,3.81.54,5.33,2.26,1.77,4.67,3.34,6.95,5.08.83.63,2.11,1.24,2,2.42-.2,1.41-1.66.52-2.48.87-1.81.79-3,2.38-4.43,3.66-.28.25-.4.68-.64,1-.1.12-.44.22-.51.16-2.36-2.36-5.1,1.37-6.68.05s-4.29-1.54-5.43-3.74c-.46-.87-1.17-1.58-1.16-2.66a65.39,65.39,0,0,0-1-9c-.31-2.29-1.47-2.94-3.26-3.58a3.73,3.73,0,0,0-4.71,1.35c-1.23,1.66-2.38,3.37-4.08,5.8.25-3.9-1.34-7,.19-10.14.75-1.55-.1-2.45-1.51-2.93a76.78,76.78,0,0,1-9.65-4.25,3.59,3.59,0,0,0-4.39.81,2.84,2.84,0,0,1-3.66.82C123.05,574.5,119.82,574.89,116.45,575.46Z" fill="#2685b7" stroke="#fff" stroke-miterlimit="10" stroke-width="2"/><path d="M166.16,150.13c-.3-1.87.19-3,2.27-3.59,2.41-.69,2.94-3.23,1.07-5.06-1.71-1.65-1.81-2.91-.22-4.67,1-1.15,1.95-2.61.58-4.25-.34-.4-.49-1.2-.13-1.35,3.32-1.36,4-5.23,7-7.05,2.21-1.35,3.24.37,4.7.91s.55,1.86.46,2.85c-.12,1.25-1.4,2.45-.6,3.68,1.55,2.39,3.27,4.67,5.05,6.9.5.62,1.52.46,2.27.18,4.88-1.84,7.64,2,11.06,4.1.79.47.34,1.48.35,2.24,0,2.44.9,4.1,3.44,4.86,2.34.71,2.7,2.18,1.35,4.28-3.15,4.91-3.13,5.59,1,9.46,3.15,2.93,3,7,3.76,10.68.3,1.44.18,3,.34,4.43.23,2.15.83,3.48,3.61,3.65,2.55.15,4.17,2.72,5.85,4.56s3.25,2.89,5.57,1.2c.78-.57,1.44-.66,1.79.46.25.81.75,1.63,1.6,1.53,5-.62,8.25,3,12.06,5.18,1.95,1.12,3.77,1.85,6.16,1.37,4.83-1,8.32,1.23,10,5.81a3,3,0,0,0,1.22,1.6c2.88,1.39,2.62,3.56,1.75,6-.44,1.22-.79,2.5,0,3.73,3.05,4.9,3.22,10.7,4.57,16.08.73,2.92.94,6.87-2,9.61a3.74,3.74,0,0,0-.71,3.93c1.21,4.16,1,8.52,2.64,12.72a10.81,10.81,0,0,1-2.13,11.38c-1.46,1.6-1.27,3.55-.86,5.35.86,3.78-.07,6.33-3.27,9a37.76,37.76,0,0,0-8.95,10.62,3.84,3.84,0,0,1-3.69,2.19c-5.9.39-5.92.45-7.26-5.27-.39-1.63-1.31-3.1-1.24-4.86.08-2.15.45-4.07,2.34-5.5s1.68-3.28,0-4.77c-1.85-1.64-2.85.1-3.8,1.29-3,3.82-2.81,3.7-5.69-.11-2-2.59-2.35-4.64-.78-7.69,1.75-3.4,2.17-7.12-1.13-10.38-1.62-1.6-2-4-2.57-6.21-.79-3.23-2.58-5.92-6.15-6.84-1.73-.44-3.42-1-5.17-1.34-1.94-.32-1.7-1.12-.85-2.36a34,34,0,0,1,5.4-5.91,3.9,3.9,0,0,1,1.57-.72c1.44-.37,3.63,1.19,4.14-1.49.67-3.5,3.33-7-.19-10.53-2.67-2.67-2.87-8.63-.53-11.46,1-1.19,1-2.11-.21-3q-5.78-4.44-11.57-8.82a1.57,1.57,0,0,0-.79-.4c-4.06-.05-5.84-2.83-7.68-5.91a16.88,16.88,0,0,1-2.16-9.69,2.6,2.6,0,0,0-1.25-2.71c-.42-.26-1.08-.45-1.21-.82-1.62-4.67-7.38-4.5-9.72-8.34a1.6,1.6,0,0,0-1.9-.55c-2.9,1.54-3.06-.58-3.28-2.43-.53-4.55-2.92-7-7.61-7-.47,0-1.32-.17-1.35-.37-.66-4-5.91-6.25-4.26-11.14.23-.68.53-1.73-.26-2.17s-1.31.58-1.86,1.08-1.3,1.22-1.94,1.84Z" fill="#fdb912" stroke="#fff" stroke-miterlimit="10" stroke-width="2"/><path d="M293.61,653.92c-4.59,2.48-8.48,4.58-12.38,6.67a38.25,38.25,0,0,0-7.11,4.28c-1.46,1.25-2.1.76-2.18-.92-.06-1.39-.66-2.41-2-2.51-3.29-.23-5.48-2.42-7.85-4.24-1.1-.84-1.75-1.65-3.26-.6s-3-1.52-4.73-.05c.68-2.95-.64-6.18-2.77-7.36-1.3-.72-2.32-.81-3.19.76a4,4,0,0,1-6,.86c-2.63-2.36-5.92-3.56-8.84-5.41-1.72-1.09-3.81-1-4.95.29-2.23,2.6-5,2.12-7.6,1.82-4.09-.46-8.26-1-11.57-4a4.52,4.52,0,0,0-4.78-.76c-3.84,1.52-7-.4-9.52-2.55-2.82-2.43-6.37-4-8.67-7a1.88,1.88,0,0,0-2.19-.46c-.35.11-1,.29-1,.21-1.56-3.38-5.22-1.58-7.59-3.07-1.64-1-3.28-.36-4,1.66-.31.86-.56,1.76-1.71,1.73-3.11-.09-3.55,1.91-3.21,4.29.29,2.09-.63,2.46-2.51,3a14.63,14.63,0,0,1-8.76-.13c-2-.56-4.64-1.55-6.24,1.9-.5,1.08-4,1.13-6.15.36a12.36,12.36,0,0,0-4.91-.71c-3.28.16-4.88-1.94-4-5.07.75-2.76,0-5.28-1-7.81-.65-1.74-.72-3,1.78-3.14,2-.13,2.65-1.54,2-3.42-2.46-7.13-3-14.74-5.55-21.83a1.75,1.75,0,0,1,1.14-2.57,96.28,96.28,0,0,1,9.14-3.47c2.84-.78,5.12-1.87,6.41-4.7a20.75,20.75,0,0,1,2.51-3.67,2.65,2.65,0,0,1,3.43-.79,3.08,3.08,0,0,1,2.3,2.62c.61,3,.62,6.06,1,9.08.32,2.45,1.25,4.59,4.09,5.09a3.16,3.16,0,0,1,1.84,1.4,2.89,2.89,0,0,0,4.41.62c.47-.33,1.34-.86,1.52-.71,3.2,2.7,4.49-.57,6.29-2a15.08,15.08,0,0,1,8.66-3.16c2.43-.19,2.87.08,4.06,2.22,3,5.47,9,7,14.66,4.29,2.48-1.21,3.85.41,5.16,1.63,2.42,2.23,6.59,3.55,9.46,2.14,1.9-.93,3.47.09,5.18.23-.77,2.58,2.73,3.5,2.34,5.82s1.11,4.06,2.33,5.64c.75,1,2-.09,2.74-.92s1.47-1.28,2.44-.27a1.58,1.58,0,0,0,1.57.6c2.61-.59,3.45.28,3.12,3.06-.21,1.77.7,3.64,1,5.51.18,1.29,1.92,2.24,3.31,1.94,3.47-.75,7.05.62,10.5-.79,1.27-.52,3.66,2.61,2.73,3.55-2.15,2.16.17,3.93.53,5.47a8.36,8.36,0,0,0,6,5.93c1.95.61,3.68-.27,5.52.21s3.6-.27,5.33-1.42c1.35-.9,3.1.52,3,1.8a2.36,2.36,0,0,0,3,2.62c2.51-.8,4.22,3,6.69.87,1.39,2,4.67,1,5.79,3.61C290.72,653.22,291.86,653.5,293.61,653.92Z" fill="#2765ac" stroke="#fff" stroke-miterlimit="10" stroke-width="2"/><path d="M149.3,287c-4.16,0-8.32-.05-12.48,0a3.19,3.19,0,0,1-3-1.62c-3.31-4.48-4.52-9.48-4.8-14.91a8.58,8.58,0,0,1,1.64-5.83c2.09-2.88,4.08-5.83,6.16-8.72a12.45,12.45,0,0,0,2.22-5.4c.48-2.81.68-5.53,2.47-8.24,2.58-3.91-.5-11.66-4.55-14.38-3.11-2.08-4.2-5.91-6.68-8.58-.54-.58,0-1.08.51-1.43,3.47-2.27,5.34-5.59,7.18-9.26,1.26-2.52,2.49-4.82,2.56-7.63,0-.9.67-1,1.29-1.36,1.59-.87,2.95-2,2.48-4.14-.18-.81,0-1.48.73-1.69,4.18-1.15,7.32-4.27,11.23-5.93.81-.34,1.41-.81,1.65.54.35,2.08,1.59,2,3,1s1.85-.82,2.34.94c.74,2.7,3.46,2.94,5.58,2.92,3.6,0,6.69.29,8.53,3.93a3.53,3.53,0,0,0,2.81,1.52c3,.3,5.58,2,8.43,2.81,1.13.33,3,.93,2.32,2.48s-.65,4.05-3.23,4.44c-4,.6-4.37,1.33-2.7,5.22a2.65,2.65,0,0,1,.2,2.57c-1.9,2.77-1.1,5.6-.5,8.53,1.73,8.44,1.68,8.46,10.23,9.19,2,.17,3.77-.05,4.82-2.08.56-1.09,1.46-1.19,2.52-.69,2.86,1.34,5.77,2.61,8.6,4,1.1.55,2.78,1.5,2.05,2.73-.89,1.52-1.25,4-3.82,4-2.39,0-4.1.42-3.8,3.45.11,1.17-.92,1.94-2.09,2.15a11.71,11.71,0,0,1-2.37.06c-7.92-.31-11.8,2.48-15.43,9.58-2.08,4.08-5.37,7.53-8.08,11.29A40.2,40.2,0,0,0,171,280.41c-.1.35-.28,1-.47,1-3.1.35-4.59,2.7-6.48,4.73-.65.71-2.45.42-3.73.44-3.66.05-7.33,0-11,0Z" fill="#fdb912" stroke="#fff" stroke-miterlimit="10" stroke-width="2"/><path d="M360,284.56c1.12-.63,2-1.15,3.58-.51,3.15,1.3,6.45.66,9.48-.76,1.67-.78,3.44-.67,5.06-1.06,3.33-.8,6.32.33,9.43.4s6.19-1,9.26-1.68,6.06-.48,8.76-2.3c1-.67,2.28,0,3.32.66,2.63,1.75,4.86,1.73,6.85-.56s4.94-3.64,7.07-5.87a3,3,0,0,1,2.4-1c2.41.3,4.86,1.92,7.17-.38.1-.1.89.33,1.22.66,3.4,3.45,8,3.55,12.31,4.23a5.09,5.09,0,0,0,4.23-1c1.65-1.47,3.11-.92,4.52.18a30.09,30.09,0,0,1,4.25,3.69c8.49,9.58,18.92,17.17,27.36,26.78.52.59,1.3,1,1.74,1.62.83,1.2,3.55,1.44,2.65,3.3s-2.35,4.09-5.2,4.33a69,69,0,0,0-14.88,2.56c-1.53.48-2.59.39-3.64-1.29-1.32-2.12-3.3-3.8-6.23-2.51-1,.42-1.67.45-1.9-.9a3.93,3.93,0,0,0-1.05-1.73c-3.75-4.18-4.21-4.3-9.56-.94-1.2.75-1.87.76-2.78-.09-2.3-2.12-4.6-1.29-6.69.24-1.72,1.26-3.32,1.88-5.45,1.1a5.11,5.11,0,0,0-5.11.46c-.29.23-.85.51-1.06.39-3.19-1.89-5.89.08-8.75,1a3.32,3.32,0,0,1-3.4-.29,2,2,0,0,0-2.71-.2c-1.62,1.48-2.44-1.08-4-.59-2.39.74-4.8,1.57-7.49.64-1.73-.6-3.16,1.31-5,1.43s-3.45.88-5.2-.07c-.53-.29-1.45-.29-1.65.19-.76,1.85-2.72,1.49-3.85,2.31a14.53,14.53,0,0,1-9.28,2.69,3,3,0,0,0-2.1,1,6.75,6.75,0,0,1-6.13,1.74c-2.19-.28-5.11-.23-7,2.57-2.33,3.51-7.86,3.65-11.52.73a18.71,18.71,0,0,1-3.22-3.06c-1.17-1.55-3.58-2.65-2.61-5.18,1.18-3.12,2.24-6.35,6.08-7.45a10.37,10.37,0,0,0,7.18-11.81,6.93,6.93,0,0,1,1-5.31,14.17,14.17,0,0,0,2.55-8.34Z" fill="#99bc13" stroke="#fff" stroke-miterlimit="10" stroke-width="2"/><path d="M228.62,410.48c.67,3-.13,6,.53,9.1.62,2.83-2.31,4.86-3.08,7.5-.3,1-1,1.95-1.26,3-.42,1.79,1.25,4.09,2.89,3.61,3.69-1.09,6.66,1.1,10,1.67,1.41.25,2.8.72,3.93-.33,1.46-1.36,2.56-.95,4.18-.11,1.81.92,1.52,2.22,1.24,3.47a16.28,16.28,0,0,0,.71,9c.31.9.78,1.74-.44,2.56-3.82,2.53-5.24,7-8.19,10.34-1.53,1.72-2.57,4-4.3,5.61-1.58,1.48-2.14,3-1.13,5,.5,1,.73,2-.74,2.26-2.06.4-2.64,2-2.93,3.68a4.33,4.33,0,0,1-2.62,3.32c-1.94,1-3.24.77-3.38-1.69a4.55,4.55,0,0,0-3.54-4.57,5.29,5.29,0,0,0-6,2.16c-1.43,2.25-3.23,2.33-5.35,1.74s-3.54.16-5,1.67c-2.8,2.89-6,5.36-7.81,9.16-.83,1.72-2.92,2.71-4.76,3.41a15,15,0,0,0-6.52,5.39c-4.08,5.3-7.4,5.43-11.68.48-2.48-2.87-3-4.91-1.48-8.54,2.61-6.21,3.05-13,3.87-19.71a23.94,23.94,0,0,1,5.92-13.58,4,4,0,0,1,2.32-1.13,3.9,3.9,0,0,0,3-5.14,5.08,5.08,0,0,1,.28-3.67c1.58-4.15,3.71-8.1,4.66-12.49a11,11,0,0,0,.54-3.5,8.49,8.49,0,0,1,3.48-8.26,6.42,6.42,0,0,0,1.28-7.9c-.94-1.62-.59-2.44.64-3.46,1-.82,1.84-1.8,2.77-2.69a1.93,1.93,0,0,0,.56-2.39c-1.63-3.7.7-6.9,1.39-10.3a1.08,1.08,0,0,1,.57-.65c6.63-2.7,11.41-8.6,18.43-10.61.76-.22,1.49-.54,2.25-.74,2.86-.74,3.64,0,3.14,2.85-.06.29-.29.71-.17.85,2,2.45.61,5.46,1.36,8.06s.23,5-.28,7.4c-.35,1.64.06,2.4,1.42,3a1.35,1.35,0,0,1-.19,2.21C227.86,408.44,228.12,409.4,228.62,410.48Z" fill="#2765ac" stroke="#fff" stroke-miterlimit="10" stroke-width="2"/><path d="M228.62,410.48c-.5-1.08-.76-2,.44-2.94a1.35,1.35,0,0,0,.19-2.21c-.13-1.25.46-2.59.44-3.55-.06-2.08.91-4.26,0-6.23a4.89,4.89,0,0,1-.54-3.42,4.45,4.45,0,0,0-.71-4.39c-1.2-1.62.06-6.61,1.74-8.34a7.77,7.77,0,0,0,1.26-8.35c-.13-.26-.44-.65-.37-.74,2.33-3,.79-7,2.38-10.15.83-1.64,2.57-1.72,4.11-1.78,2.84-.12,5.65.32,8.25-1.62,1.39-1,2.19.39,2,1.75a51.74,51.74,0,0,1-1.33,7c-.7,2.55.23,4.39,1.49,6.6,3,5.19,8.2,6.43,13,8.46a2.85,2.85,0,0,0,3.22-.95c2.24-2.3,4.37-4.7,4-8.24-.41-3.91,2.24-6.56,6.34-7,2.29-.25,4,.18,5.41,2.16a44.61,44.61,0,0,1,3.89,5.94c.84,1.69,1.65,3.36,3.69,4a2.53,2.53,0,0,1,1.36,1.47,11,11,0,0,0,4,5.37c1.38,1.08,1.76,2.39-.45,2.87-1.52.33-1.43,1.21-1.53,2.36-.28,3.23.3,5.55,3.93,6.75a15.4,15.4,0,0,1,7.36,5.65c1.46,1.91,4.36,2.81,6.14,4.91.91,1.07,3.89-.29,4.62-1.92.48-1.08.87-2.19,1.34-3.36,1.26.88,1.06,1.75.51,2.84-3.18,6.26-6.79,12.31-9.59,18.77-.11.26-.22.72-.39.75-3.3.49-6.86,1.9-9.86,1.12s-4-4.45-3.44-7.75a3.12,3.12,0,0,0-1.56-3.46c-2.13-1.45-4.07-3.18-6.41-4.28-1-.45-2.09-.9-3.1-.1s-.63,2-.25,3A11.52,11.52,0,0,1,281,417c-.27,2.21,1,4,1.68,5.89,1.47,4,1.42,6.6-2.77,8-10.95,3.78-19.45,11.17-27.38,19.3-.68.69-1.33,1.42-2.47,2.65-.44-5.27-3.1-9.6-1.79-14.59.39-1.51.69-3.19-1.19-4.16s-3.74-2.57-5.85-.35a2.48,2.48,0,0,1-2.75.49c-2.55-.8-5.11-1.52-7.66-2.31-.56-.18-1.07-.53-1.67-.14-.89.58-1.83.91-2.67,0s-.37-2,.15-3c1-1.93,2-3.87,3-5.8,0-.09.11-.17.15-.26C231.07,420.3,230.34,412.24,228.62,410.48Z" fill="#ea2229" stroke="#fff" stroke-miterlimit="10" stroke-width="2"/><path d="M207.46,103.13a9,9,0,0,1,5.95,1.48c3.62,2.25,7.69,2.52,11.77,1.91,3.85-.58,4.83-1.76,5.26-5.64s2-7.67,1.79-11.69c0-.42.14-1,.55-.91,2.36.37,3.31-3.24,5.92-2.07,2.83-3.61,4.89-.62,7.49.59,4,1.89,8.52,1.4,12.89,1.3,1.1,0,3-1.23,3.13-.12.31,2,2.06,4.24-.09,6.43a65.18,65.18,0,0,0-4.64,5.78c-2.58,3.3-1.11,7.48,3,8.13,2.64.41,3.57,1.82,3.23,4.31-.1.78-.55,1.67-.33,2.33,1.2,3.5,1.18,6.33-3.07,7.71-.57.18-.85,1.49-1.12,2.32-1,3.18-3.49,4.86-6.75,4.4-1.56-.22-2.4.79-3.27,1.67-2.1,2.11-4.13,4.27-6.14,6.46s-2.08,7,.19,9.2c4.22,4.06,8.11,8.41,12,12.74a15.45,15.45,0,0,1,1.38,1.55c2,3,1.6,4.07-1.83,4.17-3.73.11-6.62,2-9.28,4.18s-2.5,4.06.56,5.67c1.53.81,2.73,1.58,2.31,3.58a1.79,1.79,0,0,0,.9,1.76c.39.29,1.08.68,1.05,1-.49,5.07,4.9,6.32,6.59,10.12,1.08,2.43.62,4.09-.05,6.09-.33,1-1,.75-1.6.23a11.11,11.11,0,0,0-9.77-2.24,3.1,3.1,0,0,1-2.29-.26c-3.2-2.58-7.23-3.73-10.47-6.32-1.84-1.47-5.17-.11-6.74-2.79-5.14,3.75-6.5-2.06-9.42-3.82-1-.6-1.68-1.59-3.07-1.34-1.8.33-2.16-.87-2.3-2.3-.24-2.46-.46-4.92-.8-7.37-.56-4-1.75-7.64-5.31-10.19-1.94-1.39-1.18-3.37-.13-5.06.62-1,1.51-1.79,1.69-3.07.29-2.08.12-3.76-2.42-4.24s-3.22-2.2-2.92-4.39a27.18,27.18,0,0,1,1.46-6.34,15.31,15.31,0,0,0,1.44-6.6,3.07,3.07,0,0,1,.38-1.67c3.57-5.63,2.34-11.92,2.47-18,0-1.69-1.3-3.06-1.94-4.61-.52-1.28-1.4-2.77-.77-4C205.08,101.8,206.63,103.6,207.46,103.13Z" fill="#fdb912" stroke="#fff" stroke-miterlimit="10" stroke-width="2"/><path d="M287.48,123.29c-1.82-.22-2.57,1.21-3.07,2.4-.55,1.35.49,1.92,1.82,1.89,2.46,0,5.89-1,7.13.17s-.76,4.44-1.15,6.82a9.57,9.57,0,0,0,2,7.5c3,4.12,3.22,8.62,2,13.31a59.73,59.73,0,0,0-1.94,9,17.94,17.94,0,0,1-5.93,11.94c-2.28,2-4.06,4.61-6.24,6.77-1.79,1.78-3.92,5.05-3.72,8.56a13.4,13.4,0,0,1-1.7,7.72c-1.1,1.9-1,3.54.93,4.91,2.07,1.49,2.33,3,.09,4.69a4.47,4.47,0,0,0-1.53,4.84,39,39,0,0,1,.6,9.44c0,1.67.53,2.84,2.3,3.32s3.09.46,4.1-1.26c.51-.86,1.19-1.64,2.39-1.33.81.2,1,.87,1.18,1.56.34,1.24-.53,1.78-1.33,2.39-3.33,2.54-3.26,6.76.17,9.52.92.75,2,1.34,2.82,2.16a7,7,0,0,1,1.44,8.53c-1.13,2.39-2.77,4.62-2.4,7.51.16,1.26-.57,1.7-1.76,1.81-4.43.4-8.85.94-13.28,1.28-2.7.21-4.19-1.23-2.86-4.73,1.9-5-.64-8.46-2.73-12a11,11,0,0,1-1.41-8.47c1-4.12-1.42-7.64-1.83-11.53a20.67,20.67,0,0,0-2.74-8.36c-.83-1.39-.23-2.9.18-4.33.69-2.39.62-4.46-1.92-5.85-2.37-1.29-1.46-3.48-1-5.31,1.25-5.35-.3-9.83-4.92-13a4.09,4.09,0,0,1-1.42-2.24c-1.36-3.29-1.39-7.45-5.48-9.16-1.9-.79-1.18-2-.17-3a13.68,13.68,0,0,1,10.09-4.19c3.43.08,4.05-.82,2.62-3.89-2.36-5-6.94-8.29-10.38-12.47-1.12-1.36-2.57-2.46-3.81-3.74-2.65-2.74-2.52-6.17.22-8.82,1.28-1.23,2.53-2.51,3.69-3.85,1.45-1.66,2.71-3.17,5.43-2.73,2.27.37,5.62-2.64,6.24-5,.48-1.86,1.31-3.17,3.33-3.71s2.75-2.16,1.82-4.16a7.58,7.58,0,0,1-.54-4.33c.56-4.77,0-5.51-4.76-6.73-.52-.14-1.19-.1-1.64-1.14,5.47-1.35,10.67-3.4,16.48-2.55,3.94.58,6.36,3,8.23,6.14a10.3,10.3,0,0,0,2.23,2.72c3.73,3.17,4.18,5.23,2.19,9.88-.18.42-.62.82-.07,1.28Z" fill="#fdb912" stroke="#fff" stroke-miterlimit="10" stroke-width="2"/><path d="M360,284.52c-.7.6-5.43,11.37-5.1,12.11,2,4.44-1,7.47-2.92,10.81a2.52,2.52,0,0,1-2,1c-3.74.63-5.68,3.23-7.19,6.41-2.41,5.1-3.49,10.1-1,15.66,1.19,2.7,1.58,5.88-1.32,8.43-1.46,1.28.25,4.41,2.65,5.11.95.28,1.95.33,2.9.6,3.13.88,4.37,3.08,3.57,6.25-.24.95-.48,1.91-.7,2.87-.48,2-1,3.71-3.67,2.06-1.53-.95-2.85-.19-3.86,1.12-.19.23-.26.58-.48.75-3.9,3.1-7.82,6.07-9.61,11.12-.6,1.69-2.38,2.17-4.3.45-2.9-2.58-6.3-1.43-7.63,2.38-.51,1.47-1.18,3.3-.73,4.61,1.15,3.36-.1,6.54,0,9.79a3.5,3.5,0,0,1-1.62,3.47c-2.51,1.73-3.85,3.65-2.95,7.22.63,2.51-1.38,5.18-2.89,7.43-.57.84-1.71.84-2.82-.12-4.72-4-8.9-8.84-14.94-11.06-2-.75-.77-2.36-1.1-3.53a1.68,1.68,0,0,1,1.1-2.29c2.32-1,2.5-3.27.45-4.85a9.93,9.93,0,0,1-3.82-5.1,1.61,1.61,0,0,0-.63-1c-4.65-2.13-5.36-7.37-8.51-10.71-2.35-2.51-4.7-3.29-9.14-1.81a6.2,6.2,0,0,0-4.55,5.95c-.09,3.31-.77,6.24-3.34,8.54-.75.68-1.42,1.46-2.55,1.07-5.27-1.79-10.3-3.9-13.18-9.2a5.41,5.41,0,0,1-.47-4c.5-2.32.9-4.66,1.45-7a3.45,3.45,0,0,0-1.24-3.71c-1-.76-2.29-.31-3.27.49a6.67,6.67,0,0,1-4.75,1.27c-1.67-.07-3.37-.27-5,.44-.89.4-1.85,1-2.61-.18a3.61,3.61,0,0,1-.61-3.52c1.45-4.28,3-8.67.46-13.15a2.21,2.21,0,0,1-.23-1.14c.08-2,.41-4.7,2.33-5,1.63-.25,3.46,1.48,4.09,3.79,1,3.72,4.74,5.37,8.59,4,1-.34,1.52-.05,1.85.81a17.45,17.45,0,0,1,.62,2c.87,3.39,2.14,6.11,6.55,5.19,2.1-.45,3.51,1.14,4.68,2.63a3.84,3.84,0,0,0,3.18,1.86c3-.12,6,.72,9,.16a3.93,3.93,0,0,1,1.74-.17c2.45.81,4.47,1.41,6.14-1.69,1.13-2.1,2.78-3.8,2.24-6.44-.11-.54-.14-1.46.18-1.69,3.58-2.69,2.19-6.89,3.25-10.32a6.13,6.13,0,0,1,.35-.79c3.92,2.15,3.88,2.53,3.49,6.81-.31,3.5-.94,7.08.25,10.59.63,1.83,1.52,2,2.62.49a12.68,12.68,0,0,1,8-5.56c2.31-.5,3.45-2.88,4.58-4.83,1-1.72-1.32-1.53-1.78-2.56.89-1,1.69-.27,2.55.08a4.47,4.47,0,0,0,5.59-1.28c4-4.81,8-9.59,11.77-14.54a6.5,6.5,0,0,0,.36-7.54A14.51,14.51,0,0,1,322,310.2c-.06-.48-.2-1,.3-1.35s1,0,1.35.3a9.72,9.72,0,0,1,3.68,4.54c.49,1.5.74,1.74,2.78.95,4-1.54,4.92-3.5,4.06-7.44-.28-1.29,1.46-3,3.18-3,2.91-.09,4.52-2.3,6.69-3.56a2.57,2.57,0,0,0,1.09-2.32c.12-4.69.17-9.33-2.9-13.35-.5-.65-1.71-1.47-.64-2.53a2.54,2.54,0,0,1,3-.46c3.4,1.34,6.63-.2,9.82-1.1s5.49.4,5.66,3.69Z" fill="#ea2229" stroke="#fff" stroke-miterlimit="10" stroke-width="2"/><path d="M113.86,474c1.74-.51,2.75-2.32,5-2,1.25.19,1.59-1.21,1-2.15-1-1.69-.37-2.34,1.18-3,.86-.36,1.8-1.12,1.48-2.3-.28-1-1.21-.77-2-.69-1,.12-1.56-1.22-2.7-1s-2.36.88-2.43,2.21c0,.93.63,1.9-.7,2.44a23.11,23.11,0,0,1-5.71,1.49c-.18-1.37-2-1.86-1.88-3.3.17-1.63,1.18-1.86,2.75-1.52s3.11.19,1.83-2.11c-.32-.58-.49-1.08,0-1.57.83-.74,2.49-1.58,1-2.64-1.21-.88-3.16-1.53-4.74-.39a7.56,7.56,0,0,0-3.23,4.09c-.86,3-2.46,3.5-4.92,1.75-.31-.22-.86-.62-.8-.78.67-2.12.87-4.35,1.42-6.45.24-1,2.37-1.94,3.67-2,2.33-.09,3.48-1.1,4-3.66,1.53,1.88,3,3,5.19,1.91,1-.5,1.91.13,2.51,1.06,1.17,1.81,2.93,2.16,4.93,2a81.38,81.38,0,0,1,11.58,0,24.18,24.18,0,0,0,12.87-2.94,7.9,7.9,0,0,0,3.47-3.53c.93-1.8.83-3.07-1.05-4.23-2.64-1.61-2.9-3.56-1-6a4.15,4.15,0,0,0,.88-2.76c0-2.34.24-4.54,2.22-6.18,1-.81.67-2,.62-3.07-.29-5.35.83-9.91,6.23-12.56,2.13-1.05,3.25-3.41,4.88-5.14.57-.6,1-1.88,2-1.37,2.73,1.4,5.69.59,8.48,1.18,1.5.31,2.46.68.89,2.42-2.26,2.52-1.92,3.37,1.31,4.36,2.31.72,3.69,2.93,6.35,3.49-6,2.55-6.77,7.85-2,11.88a5.06,5.06,0,0,1,1.59,2.79A87.6,87.6,0,0,0,185.28,449c1.25,3,.57,3.68-2.39,4.93-3.27,1.39-4.78,4.5-6.15,7.62-2.06,4.69-2.7,9.63-3,14.67-.27,4.39-1.82,8.5-2.92,12.71-.68,2.64-2.63,2.33-4.5,1.93-3.58-.77-7.1-1.79-10.83-1.61-3.27.15-3.36.2-2.17,3.32.27.72-1,8.19-1.52,8.19-2.34,0-4.26,2.08-6.72,1.22a28,28,0,0,1-3.94-1.31c-5.43-2.93-9.57-.79-13.46,3.06-2.61,2.6-10.47,2.52-13-.14-1.67-1.78-3.18-2.58-5.31-.78a1.76,1.76,0,0,1-2.6-.57c-1.58-2.07-3.22-3.75-6.36-2.61,1.56-1.81,1.16-4.73,4.07-5,.12,0,.18-.37.33-.47.87-.6,1.39,2.23,2.26.31.36-.79-.29-2,0-2.83.18-.43.28-3.76,2.28-.87.51.74,1.33,0,1.51-.71.53-2.07,2-4,.8-6.32-.31-.59-.75-1.76.12-1.65,2.79.36,2.47-1.8,3.07-3.27a2.72,2.72,0,0,0,0-.3c.26-1.22,3.1-.31,2.12-2.37C116.57,475,114.69,475.38,113.86,474Z" fill="#2685b7" stroke="#fff" stroke-miterlimit="10" stroke-width="2"/><path d="M355.49,279.13c-3.9,1.1-7.27,3-11.18,1.47-1.63-.66-2.95.15-4,1.24-2.46,2.54-5.45,3.3-8.89,3.26-4.16-.06-8.32.26-12.48.29-2,0-3.05-.16-2.29-3.13,1-3.79,1.55-8.21-2.21-11.41a2.78,2.78,0,0,1-1.3-1.92c0-3.44-2.32-4.52-5.12-5.11a10.1,10.1,0,0,1-3.63-1.24c-5.56-3.71-7-2.85-12.17,1.6-2.24,1.93-9.49,3.24-11.21,1.07-1.49-1.89-3.53-3.2-5.11-5.27,3.38-1.5,6.67-1,9.85-1.2,1.87-.1,2.95-.86,2.83-2.6-.18-2.55,1-4.59,2-6.72,2.56-5.42,1.73-8.86-3.26-12.39a8.39,8.39,0,0,1-3-4.55c-.54-1.55-.19-2.42,1.19-3.14a5.42,5.42,0,0,0,1.88-1.4,3.28,3.28,0,0,0-.18-4.6,2.92,2.92,0,0,0-4.46.46c-.83,1-1.32,2.25-3,1.61s-1.72-2.21-1.69-3.7a25.3,25.3,0,0,0-.55-7.65,4.37,4.37,0,0,1,1.42-4.56c2.67-2.46,2.74-3.48.12-5.75-1.68-1.45-2-2.68-.84-4.56,1.36-2.28,1.5-4.88,1.55-7.48.07-3.47,1.27-4.63,4.74-4.79,3.67-.17,6.86-1.69,9.93-3.6,3.85-2.4,4.49-2.33,7.13,1.12,1.27,1.68,2.5,2.26,4.11.66,1.39-1.38,2.66-.14,3.83.22s.22,1.51.08,2.28a4.66,4.66,0,0,0,.32,3.48c4.56,6.89,7.1,15.1,13.53,20.76,1.41,1.25,2.64,2.83,4.26,3.68,5.59,2.95,6.52,8.07,6.8,13.59.07,1.29.19,2.57.35,3.85s-.14,2.63-1.53,3.22c-2.36,1-2.53,2.93-2,5a55.54,55.54,0,0,1,1.44,13.23c0,3.27,1.85,6.19,2.16,9.49.17,1.88,2.31,2.29,4.05,2.26,2.72-.06,4.7.32,5.19,3.73.45,3.18,3.38,4.45,6,5.67A18.87,18.87,0,0,1,355.49,279.13Z" fill="#ea2229" stroke="#fff" stroke-miterlimit="10" stroke-width="2"/><path d="M287.43,123.34c2.75-2.11,3.44-7.86.78-10.22a48.45,48.45,0,0,1-5.91-6.94c-3.62-4.68-8.68-4.66-13.79-4-2.83.37-5.58,1.3-8.38,1.93-.8.18-1.8.85-2.39-.22a2.28,2.28,0,0,1,.44-2.51,68.51,68.51,0,0,1,4.46-5.55c1.59-1.71,2.17-3.46,1.29-5.66-.67-1.71-.34-2.57,1.78-2.4a24.38,24.38,0,0,0,8.82-.9c2.23-.65,4.11-1.45,5-4.09a3.39,3.39,0,0,1,4.3-2.49c2.95.66,1.34-2.26,2-3.47,1,.25,1,2.15,2.2,1.57s.51-1.71.32-2.67c-.32-1.65.88-2.54,2-3.32a68.62,68.62,0,0,0,11.53-10.67,11.29,11.29,0,0,1,8-3.91c3.43-.25,6.64-1,9.07-3.74a3.38,3.38,0,0,1,1.45-1c5.3-1.53,7.77-5.88,10.39-10.15a9.8,9.8,0,0,0,1-8.22c-.35-1.15-.57-1.57.66-1.75,2.8-.41,5.61-.76,8.34-1.13.42,1-.23,1.54-.46,2.15a1.36,1.36,0,0,0,.46,1.83,2.18,2.18,0,0,0,3.13-.68c.91-1.3,4.17-2.2,2.32-4-3.39-3.28.42-3.64,1.34-5.33,1,.67.65,2.44,2.17,2.23a3.33,3.33,0,0,0,2.85-2.32c.36-1.7,1.12-2,2.61-1.87,2.36.18,4.39-.09,2.34-3.22a5.45,5.45,0,0,1,3.26,0c4.27,1.1,8.29,2.93,12.88,3.09,2.74.09,4.24,3,5.81,5.16,4.88,6.71,4.66,8.32-2.44,12.57a69.52,69.52,0,0,0-7.1,5.24,48.62,48.62,0,0,1-22.49,10,5.49,5.49,0,0,0-4.2,2.82c-4.16,7.08-8.4,14.11-12.58,21.18a7,7,0,0,1-5.56,3.45A9.91,9.91,0,0,0,318.42,88c-6.28,7.39-11.34,15.74-18.1,22.74a9.33,9.33,0,0,0-2.14,4.51c-.18.77-.3,1.55-.53,2.31-3.39,10.64-1.47,8.4-11.7,8.63-.31-1.4,1.85-1.5,1.53-2.89Z" fill="#fdb912" stroke="#fff" stroke-miterlimit="10" stroke-width="2"/><path d="M161.13,568.67c.82-4.35-.75-6.19-3.67-7.17a11.65,11.65,0,0,1-2.48-1c-2.24-1.35-2.51-3.18-.76-5,2.47-2.6,5-5.13,8.59-6.15a2.06,2.06,0,0,0,1.57-2.46,15.55,15.55,0,0,0-1.55-6.88,15.65,15.65,0,0,1-1.4-3.9c-.26-1.1-.86-2.49.28-3.33a4.25,4.25,0,0,1,4.26-.34c5,2.07,8.2,1.45,11.85-2.37,1.78-1.86,3.41-3.64,6.23-1.5,1.34,1,2.65.14,3.65-.93a2.69,2.69,0,0,0,.15-3.78c-4.14-5.48-5.52-12-6.84-18.48-.34-1.7-.26-3.06,1.58-3.9a9,9,0,0,0,3.59-3.45,12.47,12.47,0,0,1,5.6-4.7,12.9,12.9,0,0,0,7.24-6.65c1.46-3.3,5-4.72,7.23-7.35.93-1.09,2.65-.25,4,0,1.92.37,3.45.13,4.57-1.76a4.66,4.66,0,0,1,5-2.51c2.19.4,2.9,2,3.08,4.13.1,1.26.46,2.81,2.09,2.83,2.27,0,4.48-.8,5.49-2.91s1.28-4.69,4.25-5.46c1-.26,1-1.66.38-2.6-1.13-1.74-.55-3,.73-4.43a101.36,101.36,0,0,0,9.39-12.87,8.58,8.58,0,0,1,.65-1c.58-.67,1.22-1.62,2.12-1.41,1.09.26.62,1.49.8,2.3.52,2.24-.25,4.28-1,6.35-2.08,5.72-5.16,11.1-5.19,17.52,0,2.64-2,4.59-3.88,6.67-4.5,5-10.19,9.18-11.62,16.44a15.92,15.92,0,0,0,.18,8.17c.57,1.76.61,3-1.43,4a16,16,0,0,0-5.14,4.45c-.84,1-1.81,1.92-3.26,1.7-2.37-.37-3.17,1.1-3.61,3-1.14,4.8-3.17,8.93-7.93,11.19a2.77,2.77,0,0,0-1.62,2.66c.21,4.6-2.31,8.08-4.7,11.59-3.63,5.31-7.9,10.19-11,15.9a12.08,12.08,0,0,0-1.2,2.38c-1.38,5-4.45,7.78-9.86,7.59a2.26,2.26,0,0,0-1.65.54c-2.16,2.79-4.08,1.69-6.18-.11a8.62,8.62,0,0,0-5.19-2C161.69,571.56,160.55,570.38,161.13,568.67Z" fill="#2765ac" stroke="#fff" stroke-miterlimit="10" stroke-width="2"/><path d="M78,70.84c-3,.6-5.9,1.15-8.76,1.75a17.21,17.21,0,0,0-2.85.81c-4.49,1.76-4.65,2.2-2.42,6.38.26.48,1,.91.3,1.5s-1.07,0-1.6-.25-1-1.73-1.82-.72.28,1.57,1,2.1l.48.35c4.07,2.92,4.09,3-.34,5-1.13.51-1.12,1-.69,2,3.44,8.54.29,14.57-8.72,16.94a37.18,37.18,0,0,0-4.23,1.36,3,3,0,0,0-2,3c0,1.49,1,2.13,2.11,2.55,2.52,1,5,1.89,6.79,4.07.81,1,1.39,2,.93,3.23-2.36,6.48-3,13.31-4.14,20a46,46,0,0,1-6.35,16.52,55.46,55.46,0,0,0-4.84,9.84c-1.21,3.23-3.35,3.73-5.84,1.28A17.13,17.13,0,0,1,30,155c.4-7.89,1.4-15.75,2.17-23.63a6.08,6.08,0,0,1,.57-2.28c1.5-2.82,1.84-5.23-1.23-7.44-1.6-1.15-1.34-3.2-.66-5,1.09-2.76,2.23-5.5,3.39-8.24a13.29,13.29,0,0,0,.25-10.39c-1.91-4.93,0-8.85,5.07-10.49,5.66-1.84,6-2.36,5.73-8.19A16,16,0,0,1,49,67.82C52.21,64,56.18,61,60,57.84c1.28-1.06,2.91-1.47,3.69.44,1.88,4.62,5.73,6.9,9.87,8.93C75.2,68,77,68.65,78,70.84Z" fill="#fdb912" stroke="#fff" stroke-miterlimit="10" stroke-width="2"/><path d="M169.47,153.66c0,1.87.41,3.29,2.2,3.85a1.21,1.21,0,0,1,.71.88c-.06,3.52,2.39,3.81,5,4a4.25,4.25,0,0,1,4.33,4.05c.13,1,.48,1.92.66,2.89.39,2.24,1,3.95,3.81,2.36,1.05-.6,1.83.15,2.54.93,1.76,1.93,4.38,2.8,6.19,4.46,2,1.82,4.85,3.57,4.6,7-.4,5.39,2.52,9.43,5.32,13.52a3.13,3.13,0,0,0,2.26,1.29c6.33.92,9.74,6.42,14.73,9.45,1,.64.3,1.41-.28,1.92-1.57,1.39-1.42,3.11-1.18,4.94.44,3.29.47,6.64,3.35,9.11.86.74-.28,7.21-1.14,8.16-.55.61-1.3.32-2,.35-1,0-2.19-.28-2.81.6-2.24,3.2-4.34,2.35-7,.42-2.21-1.58-5-2.32-7.51-3.54-2-1-3.63-.88-4.81,1.18-.78,1.35-2,1.5-3.35,1.32-.88-.12-1.74-.39-2.6-.59-1.7-.39-4,.84-5.05-.68-.93-1.31-.81-3.38-1.12-5.12-.61-3.44-2.06-6.85.17-10.3.69-1.08,0-2.38-.62-3.36-1.21-1.9-.57-2.69,1.44-2.95,2.25-.29,4.72-3.05,4.94-5.57.24-2.79-1.92-3.43-3.9-4.07-2.63-.85-5.06-2.25-7.89-2.58a3.32,3.32,0,0,1-2.56-1.78c-1.66-3.15-4.58-3.93-7.82-3.68a8.93,8.93,0,0,1-3.48-.46c-2.77-.89-3-2.38-.81-4.34,4.77-4.22,5.46-7.85,2.62-13.68-.12-.26-.24-.7-.42-.73-3.93-.64-2.05-3.34-1.62-5.16.75-3.13.35-6.61,2.69-9.3.51-.58.12-.94-.43-1.38C166.86,155.65,167.6,154.66,169.47,153.66Z" fill="#fdb912" stroke="#fff" stroke-miterlimit="10" stroke-width="2"/><path d="M108.33,120c1.75-3.72.46-7.66-1.74-11.75-1.66-3.09-.43-6.6.44-9.85a58.55,58.55,0,0,0,2-10.16,12.8,12.8,0,0,1,11.1-11.41c1.67-.19,2.3-.52,1.88-2.3a14.91,14.91,0,0,1-.08-3.54c.06-4.57-1.11-6-5.66-6.68a7.53,7.53,0,0,1-4.43-2.18,6.66,6.66,0,0,1,1.94-10.73,14,14,0,0,1,2.52-.9c4.46-1.22,6.76-1.33,6,4.84-.64,5,1.64,7.51,6.49,7.84a4.36,4.36,0,0,1,4.1,2.87c1.57,3.93,2.53,8.23,7.15,10,.91.35.32,1.41.44,2.15.6,3.78.69,7.82,5.67,9,1.92.44,2.12,2.38.23,3.18-5.06,2.15-5.46,6.26-5.26,10.82s-1.83,7.76-5.74,9.92c-2.94,1.63-5.93,3.19-8.79,5a21.19,21.19,0,0,0-10.46,16.07,52,52,0,0,1-1.52,6.33,1.63,1.63,0,0,1-1.66,1.43,1.46,1.46,0,0,1-1.42-1.3C110.78,132.64,108.52,126.91,108.33,120Z" fill="#fdb912" stroke="#fff" stroke-miterlimit="10" stroke-width="2"/><path d="M184.31,367.31c3.76,2.65,7.84.62,11.07,2.84a1.58,1.58,0,0,0,2.11-.64c2-3.29,5.32-3.05,8.42-2.92s6.08.16,8.48-2.33c2-2.11,4.67-1,7.07-1s5.17.93,6.09-2.87c.37-1.51,2.59-1.62,3.92-1.19,1.63.51.24,1.72.09,2.68-.42,2.76.22,5.73-1.8,8.17-.17.21.07,1.05.37,1.33,1.67,1.58,1.12,3.48.28,4.93-1.41,2.42-2.17,5.34-6.08,5.72-4.22.4-8.07,2.58-11.61,5-3.25,2.22-6.17,5-10,6.31a2.39,2.39,0,0,0-1.44,1.8c-.85,3.49-2.8,6.85-1.44,10.66.51,1.45-.82,1.86-1.6,2.46s-1.51-.13-1.89-.78a4.79,4.79,0,0,0-5.07-2.37c-3.19.36-5.85-.92-8.26-2.69a4.42,4.42,0,0,0-4.95-.5,21.22,21.22,0,0,1-3.93,1.27c-2.41.56-3.18-1.05-4-2.92s.3-2.47,1.54-3.13c1.69-.89,1.87-2.59,1.9-4.1.06-2.72,1.45-3,3.67-2.68,7.37,1.21,8.56.06,8.6-7.64C185.84,377.81,186,372.92,184.31,367.31Z" fill="#fdb912" stroke="#fff" stroke-miterlimit="10" stroke-width="2"/><path d="M206.14,114.87c-.14,3.7-1.1,7.1-.67,10.59a.47.47,0,0,1,0,.29c-3.21,4.27-2.39,9.82-4.6,14.42-.48,1-.77,1.17-1.69.56-1.48-1-3-1.84-4.56-2.79a5.77,5.77,0,0,0-5.39-.7c-1.68.66-2.53,0-3.33-1.36a12.37,12.37,0,0,0-2.71-3.87c-.92-.73-.74-1.54-.42-2.61.75-2.45,1.67-5-2.06-6.25-1.86-.63-1.71-3.3,0-4.33q3.29-2,6.65-3.82c4.33-2.36,6.86-6.45,9.48-10.31,1.35-2,3-2.3,4.93-2.65.86-.17,1.25.37,1.24,1.22,0,2.7,1.11,5,2.43,7.22C206.26,111.93,205.87,113.57,206.14,114.87Z" fill="#fdb912" stroke="#fff" stroke-miterlimit="10" stroke-width="2"/><path d="M190.36,416.14a16.9,16.9,0,0,0-6.5,1.15,5.62,5.62,0,0,1-6.1-.85c-.48-.36-.87-.92-1.4-1.09-2.81-.88-4.92-1.77-1.3-4.57.92-.71-.05-1.58-.79-2.13-1.71-1.29-3.73-1.18-5.69-1.14a6.6,6.6,0,0,1-6.41-3.35,30.37,30.37,0,0,0-7.43-8c-3.2-2.48-3.1-5,.06-7.48,2.19-1.71,4.45-3.32,6.61-5.05,1.5-1.22,2.79-1.47,3.77.5,1.08,2.17,2.72,2.55,4.93,1.89,1.59-.47,3.37-.42,4.91-1,3.29-1.27,5.64.82,8.26,2,1.12.5.67,1.28.16,1.92-1.21,1.5-2.7,1.21-4.32.73-5-1.47-5.69-1-6.74,3.87-.26,1.17-.51,2.32-1.81,2.87-1.52.65-2.59,1.78-1.85,3.48.87,2,1.22,4.64,4.31,4.56a5.07,5.07,0,0,0,2.33-.34c3.61-2.15,6.8-1.46,10,1a7.71,7.71,0,0,0,5.7,1.13,4.75,4.75,0,0,1,4.89,2.62c.05.09.2.18.19.22a10.13,10.13,0,0,0,.25,7.19c.22.59-.84.53-1.4.46Z" fill="#fdb912" stroke="#fff" stroke-miterlimit="10" stroke-width="2"/><path d="M185.91,446.29c-2.66-3.87-3.19-7.74-4.31-11.4-.62-2-1.15-3.89-3.19-5.36-1.77-1.27-1.48-4.07-1.64-6.25-.14-1.92,1.67-2,3-2.21s1.61-1.41,2.49-1.88C186.46,417,191,417,195.51,418c1.11.25,1.05,1.16.56,1.85a12.36,12.36,0,0,1-2.21,2.36,6.49,6.49,0,0,0-2.62,5.68C191.62,434.49,188.23,439.93,185.91,446.29Z" fill="#fdb912" stroke="#fff" stroke-miterlimit="10" stroke-width="2"/><path d="M107.21,256.59c.77-1.57-1.07-2.91-.25-4.5-.25,1.79,2.42,3,.81,5.08l0,0c.26-.66,0-.84-.61-.64Z" fill="#fdb912" stroke="#fff" stroke-miterlimit="10" stroke-width="2"/><path d="M166.12,150.1c-1.58.31-1.5,2.43-3.06,2.75a6,6,0,0,1,3.09-2.72Z" fill="#fdb912" stroke="#fff" stroke-miterlimit="10" stroke-width="2"/><path d="M403.81,591.88c.47-.41.93-1.27,1.58-.55.45.5-.17,1-.68,1.28Z" fill="#2765ac" stroke="#fff" stroke-miterlimit="10" stroke-width="2"/><path d="M103,427.93l-.26-.17s.13,0,.15,0a.74.74,0,0,1,.07.21Z" fill="#2685b7" stroke="#fff" stroke-miterlimit="10" stroke-width="2"/><polygon points="50.08 567.79 49.95 567.87 50.11 567.82 50.08 567.79" fill="#2685b7" stroke="#fff" stroke-miterlimit="10" stroke-width="2"/><path d="M461.46,628.73l-.67.17c.07-.21.14-.43.2-.64Z" fill="#99bc13" stroke="#fff" stroke-miterlimit="10" stroke-width="2"/><path d="M107.18,256.56c.64-.2.87,0,.61.64C107.19,257.36,107.09,257.06,107.18,256.56Z" fill="#fefefe" stroke="#fff" stroke-miterlimit="10" stroke-width="2"/></svg>