<svg id="Capa_1" data-name="Capa 1" xmlns="http://www.w3.org/2000/svg" viewBox="0 0 424 428"><title>Recursos Gráficos SIGAIM</title><path d="M363.71,47.22c8,2.62,14.45,7.08,17.91,15.08a23.78,23.78,0,0,1,2.11,9.56q0,77,0,154.05c0,14.1-11.43,25.22-25.89,25.27-25.78.09-51.57,0-77.36,0-10.22,0-20.45,0-30.67,0-15.43-.08-26.63-11.28-26.64-26.77q0-74.13,0-148.25c0-15.84,5.76-23.93,20.62-29ZM245.86,148.91v73.62c0,5.51.4,5.93,5.72,5.93H355.53c5,0,5.89-.88,5.89-6q0-73.62,0-147.24c0-4.88-1.08-5.93-6.06-5.93H252.09c-5.5,0-6.23.76-6.23,6.36Z"/><path d="M324.85,254.43H271.17c-7.14,0-14.28,0-21.42,0-17.26-.09-29.8-12.69-29.82-30q0-54.51,0-109V76.18c0-17.24,6.61-26.5,22.8-32l.5-.17h121l.48.16C374.55,47.4,381,52.91,384.55,61a26.87,26.87,0,0,1,2.38,10.84q0,30.61,0,61.24,0,46.39,0,92.8c0,15.91-12.79,28.41-29.08,28.47Q341.34,254.43,324.85,254.43ZM280.44,248h22.87c18.16,0,36.32,0,54.48,0,12.72,0,22.69-9.74,22.7-22.08q.06-46.4,0-92.79,0-30.63,0-61.25a20.52,20.52,0,0,0-1.85-8.29C376,57.27,371,53.08,363.2,50.42H244.28c-13.25,4.61-18,11.4-18,25.76v39.24q0,54.51,0,109c0,13.82,9.65,23.52,23.45,23.58,7.13,0,14.25,0,21.38,0Zm20.24-16.34h-49.1c-7.08,0-8.91-1.88-8.91-9.13V75.63c0-7.41,2.11-9.55,9.42-9.55q51.63,0,103.27,0c6.75,0,9.26,2.48,9.26,9.13q0,73.62,0,147.24c0,6.88-2.29,9.21-9.08,9.21Zm-51.53-6.49c.73.09,2,.09,2.43.09q52,0,103.95,0a12.05,12.05,0,0,0,2.52-.17,12.05,12.05,0,0,0,.18-2.64q0-73.62,0-147.24a6.44,6.44,0,0,0-.27-2.59c.05.09-.48-.15-2.6-.15q-51.63,0-103.27,0a13.58,13.58,0,0,0-2.85.18,15.47,15.47,0,0,0-.18,3v146.9C249.06,223,249.06,224.4,249.15,225.18Z"/><path d="M34.48,212.86c3.15-11,10-18.13,21.5-20.24a27.77,27.77,0,0,1,5.08-.37q53.34,0,106.67,0c15.94,0,27.09,11.1,27.1,27q0,75.15,0,150.29c0,16-11,26.94-27,26.95-35.32,0-70.65-.25-106,.13C48,396.73,37.92,388.12,35,377.7a10.56,10.56,0,0,0-.55-1.25ZM172.1,294.47q0-36.64,0-73.28c0-5.9-.31-6.21-6.12-6.21H63.39c-6.29,0-6.86.56-6.86,6.76V367.25c0,6.09.8,6.92,6.83,6.92H165.6c5.8,0,6.5-.69,6.5-6.43Q172.12,331.1,172.1,294.47Z"/><path d="M61.52,399.79c-14.18,0-26-8.5-29.57-21.24,0-.07-.09-.17-.14-.27l-.25-.52-.28-.62V212.41l.13-.43c3.62-12.68,11.69-20.25,24-22.51a32.18,32.18,0,0,1,5.66-.42q53.32,0,106.67,0c17.83,0,30.29,12.43,30.3,30.18q0,75.15,0,150.29c0,17.74-12.42,30.13-30.18,30.14q-16.15,0-32.31,0c-24.14-.05-49.11-.1-73.64.16ZM37.68,375.72a7.76,7.76,0,0,1,.43,1.12c2.31,8.34,10.53,16.67,23.72,16.55,24.58-.26,49.56-.21,73.72-.17q16.15,0,32.29,0c14.23,0,23.79-9.55,23.8-23.75q0-75.15,0-150.29c0-14.21-9.62-23.77-23.92-23.78q-53.33,0-106.66,0a25.93,25.93,0,0,0-4.5.32c-9.72,1.78-15.9,7.53-18.88,17.56Zm76.8,1.65H63.36c-7.78,0-10-2.27-10-10.11V221.73c0-8,2-9.95,10-9.95H166c7.57,0,9.32,1.76,9.32,9.41V367.74c0,7.46-2.18,9.62-9.7,9.62ZM60,370.72a12.74,12.74,0,0,0,3.37.25H165.6a15.15,15.15,0,0,0,3.12-.19,15.68,15.68,0,0,0,.18-3V221.19c0-.69,0-2.13-.09-2.93-.78-.09-2.17-.09-2.84-.09H63.39a22.12,22.12,0,0,0-3.48.19,21.85,21.85,0,0,0-.18,3.37V367.25A12.7,12.7,0,0,0,60,370.72Z"/><path d="M174.22,47.22c11.19,3.15,18.24,10.18,20.3,21.8a28.72,28.72,0,0,1,.31,5.08q0,31.34,0,62.66c0,16.11-11.1,27.18-27.22,27.19q-52.1,0-104.2,0c-15.78,0-23.81-5.72-28.94-20.63V67q4.6-15.16,19.77-19.77Zm-59.65,94h51.81c5.23,0,5.71-.47,5.72-5.6q0-30.15,0-60.32c0-5.15-.84-6-5.89-6q-51.81,0-103.61,0c-5,0-6.06,1-6.06,5.93q0,30,0,60c0,5.14.85,6,5.89,6Z"/><path d="M122.53,167.16H63.42c-17.13,0-26.39-6.61-32-22.79l-.18-.5V66.51l.14-.45c3.38-11.14,10.75-18.51,21.9-21.9l.45-.14H174.66l.42.12c12.76,3.59,20.36,11.77,22.59,24.32A31.59,31.59,0,0,1,198,74.1q0,31.34,0,62.66c0,17.88-12.53,30.37-30.41,30.39ZM37.68,142.79c4.68,13.26,11.48,18,25.74,18H91.33q38.15,0,76.29,0c14.35,0,24-9.65,24-24q0-31.32,0-62.64a28.22,28.22,0,0,0-.26-4.53c-1.77-9.93-7.53-16.2-17.61-19.16h-119c-8.7,2.77-14.29,8.36-17,17Zm47.57,1.62H62.42c-6.78,0-9.08-2.33-9.08-9.21q0-30,0-60c0-6.65,2.51-9.13,9.26-9.13q51.79,0,103.61,0c6.79,0,9.08,2.33,9.08,9.21q0,30.17,0,60.33c0,6.89-1.92,8.78-8.91,8.79H85.25Zm-25.33-6.57a11.27,11.27,0,0,0,2.51.17h104a23,23,0,0,0,2.44-.09c.05-.47.08-1.24.08-2.31q0-30.15,0-60.32a12.26,12.26,0,0,0-.18-2.65,12.16,12.16,0,0,0-2.51-.17q-51.81,0-103.61,0a7,7,0,0,0-2.73.28c.08,0-.13.47-.14,2.46q0,30,0,60A11.73,11.73,0,0,0,59.92,137.84Z"/><path d="M303.73,396.46c-18.06,0-36.12,0-54.18,0-15.29,0-26.38-11.11-26.42-26.48q-.07-32,0-64.06c.05-15,11.31-26.38,26.3-26.41q54-.09,108,0c15.15,0,26.24,11.17,26.27,26.27q.06,32.37,0,64.74c0,14.8-11.07,25.9-25.8,25.94C339.85,396.5,321.79,396.46,303.73,396.46Zm-.14-94.24H251.45c-5,0-5.58.5-5.58,5.38q0,30.51,0,61c0,4.58,1,5.55,5.66,5.55h104c4.87,0,5.94-1.13,5.94-6.08q0-29.82,0-59.64c0-5.48-.76-6.21-6.38-6.21Z"/><path d="M336.15,399.67H287.61q-19,0-38.06,0c-17.12,0-29.57-12.51-29.62-29.67-.05-22.73-.05-43.69,0-64.07.05-16.85,12.72-29.57,29.48-29.6,34.66-.06,71-.06,108,0,16.77,0,29.44,12.69,29.47,29.46q.06,32.37,0,64.75c0,16.56-12.5,29.08-29,29.12Q347,399.67,336.15,399.67Zm-32.42-6.41h16.21q19,0,38,0c12.87,0,22.59-9.81,22.61-22.74q.06-32.37,0-64.73c0-13.36-9.72-23.06-23.08-23.08-37-.06-73.35-.06-108,0-13.13,0-23.06,10-23.1,23.22-.06,20.38-.06,41.32,0,64,0,13.69,9.59,23.27,23.23,23.3q19,0,38,0Zm-1.16-15.89h-51c-6.45,0-8.85-2.37-8.86-8.74q0-30.51,0-61c0-6.65,2-8.57,8.78-8.58h103.6c7.33,0,9.57,2.2,9.57,9.41q0,29.82,0,59.64c0,6.76-2.48,9.27-9.14,9.27Zm-53.34-6.58a10.12,10.12,0,0,0,2.31.17q52,0,103.94,0a6.6,6.6,0,0,0,2.58-.27,15.38,15.38,0,0,0,.17-2.61q0-29.82,0-59.64a13.32,13.32,0,0,0-.18-2.83,14.34,14.34,0,0,0-3-.19H251.45a21.55,21.55,0,0,0-2.31.08c0,.39-.08,1-.08,2.1q0,30.51,0,61A10.19,10.19,0,0,0,249.23,370.79Z"/></svg>