<svg id="Capa_1" data-name="Capa 1" xmlns="http://www.w3.org/2000/svg" viewBox="0 0 424 428"><title>Recursos Gráficos SIGAIM</title><path d="M141.77,349.24c-8.72,0-17.44.05-26.16,0-19.68-.15-32.36-17.76-25.84-36.36,7.86-22.43,16.15-44.71,24.31-67a21.63,21.63,0,0,0,1.41-7.72c-.06-15.32-.26-30.65,0-46,.79-44.41,21.68-75.94,61.78-94.67,4.46-2.08,6.06-4.28,5.77-9.08a67.88,67.88,0,0,1,.56-16.59,34.24,34.24,0,0,1,67.87,5c.17,4.49.25,9,0,13.47-.19,3.39.94,5.09,4.19,6.48,31.16,13.29,51.27,36.38,60.26,69.05a85.45,85.45,0,0,1,3.1,23.08c-.07,16.78,0,33.56,0,50.34a26.19,26.19,0,0,0,1.51,8.91q11.06,31.8,22,63.66c6.92,20.14-5.46,37.46-26.79,37.49-16.65,0-33.29.08-49.94-.05-3.18,0-4.9.75-6.09,4a45,45,0,0,1-84.86,0c-1.08-3-2.44-4.14-5.67-4.06C160,349.38,150.89,349.24,141.77,349.24Zm74.69-23.45h97.87c6.62,0,7.67-1.4,5.57-7.5q-11.52-33.51-23.11-67a22.08,22.08,0,0,1-1.21-7.37q0-25.75,0-51.51a88.73,88.73,0,0,0-.8-13.42,78.2,78.2,0,0,0-88.94-65.72c-39.23,5.79-66.8,38.26-67,77.85-.07,17,0,34.08,0,51.12a18.78,18.78,0,0,1-1,6.6q-12.63,34.6-25.2,69.23c-2.31,6.34-1.38,7.73,5.48,7.73Zm.72-237h1.58c10.84-.2,9.16,1.64,9.34-9.5a11,11,0,0,0-16.69-10.26c-4.5,2.79-7.37,12.17-4.79,18,1.64,3.71,5.71,1,8.58,1.73A8.72,8.72,0,0,0,217.18,88.81Zm0,260.44c-5,0-10,0-15,0-.87,0-2.1-.32-2.35.82-.13.56.56,1.4,1,2,7.82,9.73,25,9.7,32.74,0,.49-.61,1.29-1.21,1-2-.4-1.09-1.56-.75-2.43-.76C227.19,349.23,222.2,349.25,217.2,349.25Z"/><path d="M217.44,385.22H217a47.72,47.72,0,0,1-44.16-31.28c-.83-2.28-1.48-2.76-3.69-2.72-6.59.16-13.27.13-19.74.1l-7.66,0h-8.48c-5.9,0-11.8,0-17.7,0-10.14-.08-19.07-4.55-24.51-12.28s-6.54-17.4-3.24-26.81c6.15-17.54,12.66-35.28,19-52.43l5.37-14.63a19.65,19.65,0,0,0,1.28-7l-.06-10.8c-.06-11.54-.13-23.48.07-35.22.8-44.89,22-77.35,63-96.49,3.84-1.79,4.83-3.32,4.6-7.11a69.9,69.9,0,0,1,.58-17.08,36.3,36.3,0,0,1,71.94,5.26c.15,4,.26,8.79,0,13.67-.14,2.49.46,3.41,2.94,4.47C288.08,108.3,308.75,132,317.9,165.2a88,88,0,0,1,3.17,23.64c0,8.39,0,16.78,0,25.16s0,16.79,0,25.18a24.54,24.54,0,0,0,1.39,8.23q11.07,31.8,22,63.66c3.51,10.22,2.4,20.47-3.05,28.12s-14.82,12.07-25.67,12.09H311.3c-14.94,0-30.38,0-45.58-.06-2.58,0-3.34.46-4.14,2.69A47.18,47.18,0,0,1,217.44,385.22Zm-48-38.1c3.78,0,5.91,1.58,7.3,5.41a43.61,43.61,0,0,0,40.35,28.59,43.14,43.14,0,0,0,40.66-28.6c1.73-4.77,4.93-5.39,8-5.38,15.18.11,30.61.08,45.54.05h4.39c9.65,0,17.58-3.71,22.34-10.38s5.64-15.32,2.52-24.41q-10.95-31.84-22-63.65a28.19,28.19,0,0,1-1.61-9.58c0-8.39,0-16.78,0-25.16s0-16.79,0-25.18a83.79,83.79,0,0,0-3-22.54c-8.81-32-28.69-54.74-59.09-67.71-4.05-1.72-5.67-4.26-5.43-8.47.26-4.71.15-9.36,0-13.28a32.2,32.2,0,0,0-63.81-4.68,66,66,0,0,0-.52,16.09c.33,5.48-1.62,8.58-6.95,11.07-39.44,18.42-59.83,49.66-60.6,92.85-.21,11.7-.14,23.61-.07,35.13q0,5.4,0,10.81a24.12,24.12,0,0,1-1.52,8.43l-5.37,14.63C104.35,278.3,97.84,296,91.7,313.54c-2.85,8.14-1.86,16.56,2.74,23.09s12.38,10.48,21.19,10.55c5.88,0,11.76,0,17.65,0h8.49l7.68,0c6.44,0,13.09.06,19.62-.09Zm47.85,14.28c-7.2,0-13.91-3-18-8-.73-.89-1.78-2.2-1.44-3.72.39-1.74,1.72-2.57,4-2.43a2.2,2.2,0,0,0,.36,0c3.74,0,7.47,0,11.21,0h7.43q5.68,0,11.38,0h.37c.76-.06,3.1-.21,4,2.1a3.57,3.57,0,0,1-1.06,3.73l-.24.28c-4,5-10.7,8.07-17.9,8.09Zm-14.33-10.09a19.09,19.09,0,0,0,14.33,6h.07a19,19,0,0,0,14.24-6c-3.58,0-7.15,0-10.73,0h-7.45C209.91,351.29,206.42,351.29,202.93,351.31Zm59.62-23.47H118.19c-3.83,0-6.48-.4-7.86-2.37s-.84-4.55.46-8.11q5.5-15.11,11-30.21,7.09-19.51,14.2-39a16.92,16.92,0,0,0,.85-5.9l0-11.07c0-13.35,0-26.71,0-40.06.18-41.08,28.44-73.93,68.72-79.87a80.58,80.58,0,0,1,91.26,67.44,89.69,89.69,0,0,1,.83,13.72q0,25.77,0,51.52a20.06,20.06,0,0,0,1.09,6.69q11.61,33.5,23.12,67c1.14,3.31,1.61,5.92.24,7.85s-4.11,2.36-7.75,2.36Zm-46.09-4.09h97.87c3.76,0,4.33-.53,4.41-.64s.38-.78-.78-4.14q-11.52-33.52-23.11-67a24.27,24.27,0,0,1-1.32-8q.06-25.76,0-51.5a87.23,87.23,0,0,0-.78-13.11,76.46,76.46,0,0,0-86.61-64c-38.23,5.64-65.05,36.82-65.22,75.83-.06,13.34,0,26.69,0,40v11.07a20.47,20.47,0,0,1-1.09,7.32q-7.11,19.5-14.2,39-5.49,15.1-11,30.21c-1.31,3.58-1,4.27-1,4.37s.62.61,4.5.61h98.27ZM209.88,91.11a5.12,5.12,0,0,1-5.13-3.22c-2.89-6.52,0-17.1,5.57-20.58a13,13,0,0,1,19.83,12c0,1.5,0,2.75,0,3.81,0,3.33,0,5.16-1.27,6.47s-3,1.27-6.21,1.23c-1.07,0-2.34,0-3.86,0h-1.62l-.51,0a6.11,6.11,0,0,1-2-.1,7.59,7.59,0,0,0-2.5.12A17.21,17.21,0,0,1,209.88,91.11Zm7.23-21.55a8.8,8.8,0,0,0-4.62,1.23c-3.56,2.21-6.23,10.4-4,15.44.36.82.67,1,3.13.61a10.43,10.43,0,0,1,4.06,0,3.63,3.63,0,0,0,.73,0l.76,0h1.54c1.58,0,2.89,0,4,0a22.44,22.44,0,0,0,3.24-.09,22.58,22.58,0,0,0,.1-3.49c0-1.09,0-2.37,0-3.9A9.39,9.39,0,0,0,223,71.62,8.93,8.93,0,0,0,217.11,69.56Z"/></svg>